<?xml version="1.0" standalone="no"?>
<!DOCTYPE svg PUBLIC "-//W3C//DTD SVG 1.1//EN" "http://www.w3.org/Graphics/SVG/1.1/DTD/svg11.dtd" >
<svg xmlns="http://www.w3.org/2000/svg" xmlns:xlink="http://www.w3.org/1999/xlink" version="1.1">
<metadata></metadata>
<defs>
<font id="rajdhani_modsemibold" horiz-adv-x="1188" >
<font-face units-per-em="2048" ascent="1638" descent="-410" />
<missing-glyph horiz-adv-x="500" />
<glyph horiz-adv-x="0" />
<glyph horiz-adv-x="0" />
<glyph unicode="&#xd;" horiz-adv-x="0" />
<glyph unicode=" " />
<glyph unicode="!" d="M484 1008v274q0 34 36 34h148q36 0 36 -34v-274q0 -242 -32 -518q-6 -38 -36 -38h-84q-30 0 -36 38q-32 276 -32 518zM494 36v248q0 34 34 34h136q34 0 34 -34v-250q0 -34 -34 -34h-136q-34 0 -34 36z" />
<glyph unicode="&#x22;" d="M338 1284v2q-2 30 30 30h122q32 0 30 -32q-14 -128 -42 -382q-10 -38 -38 -38h-24q-32 0 -36 40q-14 126 -42 380zM670 1284q-6 32 30 32h120q30 0 30 -22v-10q-14 -128 -42 -382q-6 -38 -38 -38h-22q-36 0 -36 40q-14 126 -42 380z" />
<glyph unicode="#" d="M-8 342v92q0 38 36 38h212q24 92 96 374h-194q-36 0 -36 36v92q0 36 36 36h238q18 68 70 270q6 36 38 36h94q42 0 30 -40q-24 -88 -68 -266h290q18 68 70 270q8 36 46 36h88q38 0 30 -40q-24 -88 -70 -266h162q36 0 36 -36v-92q0 -36 -36 -36h-202q-24 -94 -96 -374h184 q34 0 34 -38v-92q0 -34 -34 -34h-228q-18 -68 -70 -272q-8 -36 -38 -36h-96q-38 0 -30 40q24 90 70 268h-290q-18 -68 -70 -272q-12 -36 -46 -36h-92q-38 0 -26 40q24 90 70 268h-172q-36 0 -36 34zM404 472h292q24 92 96 374h-292q-24 -94 -96 -374z" />
<glyph unicode="$" d="M176 320v46q0 38 36 38h128q36 0 36 -38v-30q0 -86 38 -124q40 -38 128 -38h106q86 0 126 40q38 40 38 130v66q0 86 -54 118q-52 32 -158 38q-152 6 -212 22t-108 50q-104 72 -104 266v96q0 148 82 234q82 84 230 84h36v168q0 36 34 36h94q36 0 36 -36v-168h10 q138 0 220 -86q80 -86 80 -232v-46q0 -36 -34 -36h-130q-36 0 -36 36v26q0 88 -38 124q-38 38 -126 38h-94q-90 0 -128 -40q-36 -40 -36 -136v-68q0 -78 52 -110q52 -30 160 -36q36 -2 106 -4q142 -8 230 -82q88 -72 88 -248v-98q0 -150 -84 -236q-86 -84 -230 -84h-10v-166 q0 -34 -36 -34h-94q-34 0 -34 34v166h-36q-144 0 -228 84q-84 86 -84 236z" />
<glyph unicode="%" d="M-52 928v168q0 224 224 224h94q222 0 222 -224v-168q0 -226 -222 -226h-94q-224 0 -224 226zM90 934q0 -64 22 -88q24 -24 86 -24h42q62 0 84 24q24 26 24 88v156q0 60 -24 86q-22 26 -84 26h-42q-62 0 -86 -24q-22 -24 -22 -88v-156zM264 36q46 124 256 628 q208 504 254 616q16 36 44 36h82q40 0 24 -38l-510 -1242q-12 -36 -46 -36h-80q-38 0 -24 36zM700 226v168q0 224 222 224h94q224 0 224 -224v-168q0 -226 -224 -226h-94q-222 0 -222 226zM842 234q0 -64 24 -90q22 -26 86 -26h40q62 0 86 26q22 26 22 90v154q0 62 -22 88 q-24 24 -86 24h-40q-64 0 -86 -24q-24 -26 -24 -88v-154z" />
<glyph unicode="&#x26;" d="M70 314v140q0 104 52 180q54 78 156 86q-84 110 -84 240v44q0 146 90 230q88 82 240 82h62q150 0 234 -82q84 -80 84 -230v-80q0 -38 -36 -38h-128q-36 0 -36 38v76q0 146 -136 146h-26q-142 0 -142 -146v-44q0 -92 90 -192l108 -126h470q34 0 34 -36v-104q0 -36 -34 -36 h-322q92 -108 366 -434q6 -6 6 -12v-6q-4 -10 -16 -10h-164q-40 0 -60 24q-32 40 -100 120q-46 -144 -250 -144h-140q-150 0 -234 82t-84 232zM262 326q0 -150 154 -150h112q116 0 130 104q-92 108 -276 322q-120 -6 -120 -160v-116z" />
<glyph unicode="'" d="M504 1248q0 20 32 20h116q18 0 26 -8q6 -6 6 -16v-4q-14 -98 -40 -294q-6 -30 -36 -30h-28q-34 0 -36 32q-14 98 -38 292q-2 4 -2 8z" />
<glyph unicode="(" d="M398 192v726q0 200 94 300q94 98 258 98h6q22 0 28 -4q6 -6 6 -22v-88q0 -30 -34 -30h-8q-184 0 -184 -234v-768q0 -234 188 -234h4q34 0 34 -30v-88q0 -16 -6 -22q-6 -4 -28 -4h-8q-164 0 -256 98q-94 100 -94 302z" />
<glyph unicode=")" d="M398 -94q0 30 34 30h4q90 0 138 58q50 60 50 176v768q0 116 -50 176q-48 58 -138 58h-4q-34 0 -34 30v88q0 26 34 26h4q164 0 258 -98q96 -100 96 -300v-726q0 -202 -96 -302q-94 -98 -258 -98h-4q-34 0 -34 26v88z" />
<glyph unicode="*" horiz-adv-x="1186" d="M284 1046q0 6 4 14l24 78q10 34 42 20q118 -28 240 -150q-78 156 -78 254v22q0 32 36 32h80q32 0 32 -32v-22q0 -116 -70 -254q2 0 14 14q14 14 32 30q18 20 42 40q60 46 130 68q8 2 24 8q30 8 42 -24q8 -24 24 -74q2 -10 2 -16q0 -22 -24 -28q-118 -42 -286 -18 q6 0 60 -30q114 -66 166 -150q22 -28 -6 -46q-22 -16 -66 -46q-30 -18 -48 8q-76 90 -106 264q-22 -164 -86 -252q-4 -8 -14 -20q-10 -14 -24 -14q-10 0 -22 10q-22 14 -64 46q-34 18 -8 48q72 106 218 182q-172 -32 -264 2q-8 2 -24 8q-22 8 -22 28z" />
<glyph unicode="+" d="M176 614v86q0 42 38 42h294v294q0 42 40 42h92q40 0 40 -42v-294h294q38 0 38 -42v-86q0 -38 -38 -38h-294v-298q0 -40 -40 -40h-92q-40 0 -40 40v298h-294q-38 0 -38 38z" />
<glyph unicode="," d="M490 -182v466q0 34 36 34h138q34 0 34 -34v-160q0 -48 -40 -122l-108 -198q-8 -20 -30 -20q-30 0 -30 34z" />
<glyph unicode="-" d="M356 608v90q0 38 36 38h404q36 0 36 -38v-90q0 -36 -36 -36h-404q-36 0 -36 36z" />
<glyph unicode="." d="M490 34v250q0 34 36 34h138q34 0 34 -34v-250q0 -34 -34 -34h-138q-36 0 -36 34z" />
<glyph unicode="/" d="M264 22q0 6 4 14q44 116 228 620q186 504 232 624q16 36 48 36h118q30 0 30 -22q0 -8 -4 -16q-152 -414 -460 -1242q-12 -36 -48 -36h-116q-32 0 -32 22z" />
<glyph unicode="0" d="M174 318v682q0 150 84 234q82 82 234 82h206q148 0 232 -82q84 -84 84 -234v-682q0 -150 -84 -234t-232 -84h-206q-152 0 -234 84q-84 84 -84 234zM376 326q0 -152 148 -152h144q148 0 148 152v666q0 150 -148 150h-144q-148 0 -148 -150v-666z" />
<glyph unicode="1" d="M362 996v120q0 32 28 50q72 42 214 128q38 22 64 22h124q34 0 34 -34v-1248q0 -34 -32 -34h-134q-34 0 -34 34v1070q-56 -32 -224 -130q-40 -18 -40 22z" />
<glyph unicode="2" d="M194 924v80q0 150 84 230q84 82 236 82h158q150 0 234 -82q84 -80 84 -230v-84q0 -160 -124 -262q-132 -108 -394 -322q-48 -40 -48 -92v-66h534q36 0 36 -34v-110q0 -34 -36 -34h-720q-36 0 -36 34v190q0 126 108 212q130 106 388 316q98 78 98 180v68q0 146 -154 146 h-100q-78 0 -112 -34q-36 -34 -36 -112v-76q0 -38 -34 -38h-132q-34 0 -34 38z" />
<glyph unicode="3" d="M186 314v72q0 36 34 36h132q34 0 34 -36v-68q0 -76 36 -112t112 -36h120q152 0 152 148v112q0 150 -152 150h-112q-36 0 -36 34v92q0 38 36 38h112q152 0 152 148v108q0 146 -152 146h-120q-76 0 -112 -34t-36 -112v-60q0 -34 -34 -34h-132q-34 0 -34 34v64q0 150 84 230 q84 82 234 82h180q150 0 234 -82q84 -80 84 -230v-114q0 -180 -164 -228q164 -40 164 -230v-118q0 -150 -84 -232t-234 -82h-180q-150 0 -234 82t-84 232z" />
<glyph unicode="4" d="M108 310v62q0 46 18 80q152 272 456 814q18 30 32 40t42 10h180q60 0 60 -58v-832h150q34 0 34 -34v-104q0 -38 -34 -38h-150v-216q0 -34 -32 -34h-122q-34 0 -34 34v216h-542q-58 0 -58 60zM304 426h404v724q-102 -180 -404 -724z" />
<glyph unicode="5" d="M190 318v52q0 38 34 38h130q34 0 34 -38v-50q0 -150 148 -150h116q152 0 152 150v206q0 92 -36 132q-36 38 -122 38h-126q-40 0 -66 -14q-24 -14 -34 -30q-22 -48 -54 -48h-130q-34 0 -34 34v644q0 34 34 34h694q38 0 38 -34v-116q0 -36 -38 -36h-528v-372 q36 100 172 100h122q146 0 224 -76q78 -78 78 -226v-238q0 -150 -84 -234t-234 -84h-174q-150 0 -234 84q-82 84 -82 234z" />
<glyph unicode="6" d="M176 318v682q0 150 84 234q84 82 236 82h408q34 0 34 -34v-106q0 -34 -34 -34h-380q-148 0 -148 -150v-176h316q152 0 236 -84q84 -82 84 -234v-180q0 -150 -84 -234t-236 -84h-196q-152 0 -236 84t-84 234zM376 326q0 -152 148 -152h140q148 0 148 152v164 q0 152 -148 152h-288v-316z" />
<glyph unicode="7" horiz-adv-x="1186" d="M210 1170v112q0 34 36 34h694q36 0 36 -34v-126q0 -34 -22 -86l-414 -1038q-12 -32 -56 -32h-142q-38 0 -18 38q146 366 438 1094h-516q-36 0 -36 38z" />
<glyph unicode="8" d="M166 306v110q0 188 142 246q-142 56 -142 248v104q0 148 84 226q84 76 236 76h218q152 0 234 -76q82 -78 82 -226v-104q0 -94 -36 -160q-38 -66 -102 -88q138 -56 138 -248v-108q0 -150 -82 -228t-234 -78h-218q-152 0 -236 78t-84 228zM366 320q0 -76 36 -112 q36 -34 112 -34h160q76 0 112 34q36 36 36 112v110q0 154 -148 154h-160q-148 0 -148 -154v-110zM366 898q0 -154 148 -154h160q148 0 148 154v100q0 76 -36 110t-112 34h-160q-76 0 -112 -34t-36 -110v-100z" />
<glyph unicode="9" d="M176 806v194q0 150 84 234q84 82 236 82h196q152 0 236 -82q84 -84 84 -234v-682q0 -150 -84 -234t-236 -84h-416q-38 0 -38 34v108q0 32 38 32h388q148 0 148 152v166h-316q-152 0 -236 82q-84 84 -84 232zM378 818q0 -150 148 -150h288v324q0 150 -150 150h-138 q-148 0 -148 -150v-174z" />
<glyph unicode=":" d="M490 36v248q0 34 36 34h138q34 0 34 -34v-250q0 -34 -34 -34h-138q-36 0 -36 36zM490 766v244q0 34 36 34h138q34 0 34 -32v-250q0 -34 -34 -34h-138q-36 0 -36 38z" />
<glyph unicode=";" d="M490 -182v466q0 34 36 34h138q34 0 34 -34v-160q0 -48 -40 -122l-108 -198q-8 -20 -30 -20q-30 0 -30 34zM490 766v244q0 34 36 34h138q34 0 34 -32v-250q0 -34 -34 -34h-138q-36 0 -36 38z" />
<glyph unicode="&#x3c;" d="M176 620v90q0 50 42 64q252 86 754 260q12 6 20 4q20 0 20 -28v-102q0 -40 -32 -48q-214 -64 -640 -194l640 -192q32 -10 32 -48v-102q0 -30 -20 -30q-8 0 -20 6q-252 86 -754 258q-42 14 -42 62z" />
<glyph unicode="=" d="M176 422v84q0 38 38 38h762q36 0 36 -38v-84q0 -42 -36 -42h-762q-38 0 -38 42zM176 812v82q0 24 8 32t30 8h762q36 0 36 -40v-82q0 -40 -36 -40h-762q-22 0 -30 8t-8 32z" />
<glyph unicode="&#x3e;" d="M176 324v102q0 38 32 48l636 192q-158 48 -636 194q-32 8 -32 48v102q0 28 20 28q8 2 20 -4q252 -86 754 -260q42 -14 42 -64v-90q0 -48 -42 -62q-252 -86 -754 -258q-12 -6 -20 -6q-20 0 -20 30z" />
<glyph unicode="?" d="M220 938v64q0 148 84 230t232 82h116q148 0 232 -82t84 -230v-44q0 -102 -92 -184q-40 -32 -122 -98q-42 -34 -52 -60q-12 -26 -12 -68v-60q0 -36 -36 -36h-122q-34 0 -34 36v58q0 76 22 120q22 42 82 92q34 28 100 84q72 58 72 126v30q0 146 -154 146h-54 q-76 0 -112 -36q-34 -34 -34 -110v-60q0 -36 -38 -36h-128q-34 0 -34 36zM486 36v248q0 34 34 34h140q32 0 32 -34v-250q0 -34 -32 -34h-140q-34 0 -34 36z" />
<glyph unicode="@" d="M-42 376v356q0 218 142 360t352 142h412q162 0 264 -96t102 -248v-448q0 -120 -76 -196q-78 -76 -198 -76h-96q-48 0 -80 24q-34 24 -34 66v22h-8q-48 -110 -208 -110q-126 0 -202 80q-78 80 -78 226v146q0 150 80 234t214 84h332q34 0 34 -34v-592q0 -24 36 -24h2 q158 0 158 164v424q0 112 -70 172q-72 62 -186 62h-388q-172 0 -278 -106q-106 -104 -106 -288v-324q0 -184 112 -288q110 -106 284 -106h370q36 0 36 -34v-52t-36 -34h-368q-218 0 -368 134q-150 136 -150 360zM428 474q0 -150 146 -150h4q168 0 168 172v270q0 22 -22 22 h-150q-146 0 -146 -152v-162z" />
<glyph unicode="A" d="M84 22q0 6 2 12q118 416 356 1248q10 34 50 34h204q42 0 50 -34q118 -416 356 -1248q2 -6 2 -12q0 -22 -24 -22h-146q-18 0 -26 8q-6 6 -10 26q-26 90 -78 268h-452q-18 -68 -78 -268q-8 -34 -36 -34h-148q-22 0 -22 22zM410 464h370q-46 164 -182 656h-8 q-46 -164 -180 -656z" />
<glyph unicode="B" d="M166 34v1248q0 34 34 34h486q152 0 236 -82q84 -80 84 -230v-100q0 -180 -168 -230q80 -10 132 -70t52 -160v-130q0 -150 -84 -232t-234 -82h-504q-34 0 -34 34zM364 190q0 -20 24 -20h286q154 0 154 148v126q0 148 -162 148h-278q-24 0 -24 -20v-382zM364 776 q0 -20 24 -20h266q154 0 154 150v94q0 146 -150 146h-270q-24 0 -24 -20v-350z" />
<glyph unicode="C" d="M158 318v682q0 150 82 234q84 82 236 82h236q150 0 234 -82q84 -84 84 -234v-98q0 -38 -36 -38h-130q-34 0 -34 38v90q0 150 -148 150h-178q-148 0 -148 -150v-666q0 -152 148 -152h178q148 0 148 152v90q0 36 34 36h130q36 0 36 -36v-98q0 -150 -84 -234t-234 -84h-236 q-152 0 -236 84q-82 84 -82 234z" />
<glyph unicode="D" d="M164 34v1248q0 34 36 34h504q148 0 234 -82q84 -84 84 -234v-682q0 -150 -84 -234q-86 -84 -234 -84h-504q-36 0 -36 34zM364 196q0 -22 22 -22h288q148 0 148 152v666q0 150 -148 150h-288q-22 0 -22 -20v-926z" />
<glyph unicode="E" d="M232 34v1248q0 34 36 34h654q34 0 34 -34v-104q0 -36 -34 -36h-466q-24 0 -24 -20v-346q0 -20 24 -20h394q38 0 38 -36v-104q0 -34 -38 -34h-394q-24 0 -24 -20v-366q0 -22 24 -22h466q34 0 34 -34v-106q0 -34 -34 -34h-654q-36 0 -36 34z" />
<glyph unicode="F" d="M238 34v1248q0 34 34 34h644q34 0 34 -34v-104q0 -36 -34 -36h-456q-24 0 -24 -20v-386q0 -24 24 -24h396q36 0 36 -34v-102q0 -38 -36 -38h-396q-24 0 -24 -20v-484q0 -34 -34 -34h-130q-34 0 -34 34z" />
<glyph unicode="G" d="M166 318v682q0 150 84 234q82 82 234 82h220q152 0 234 -82q82 -84 82 -234v-74q0 -38 -34 -38h-128q-36 0 -36 38v66q0 150 -148 150h-160q-148 0 -148 -150v-666q0 -152 148 -152h160q148 0 148 152v184q0 20 -22 20h-166q-34 0 -34 36v104q0 34 34 34h344q42 0 42 -42 v-344q0 -150 -84 -234t-232 -84h-220q-152 0 -234 84q-84 84 -84 234z" />
<glyph unicode="H" d="M156 34v1248q0 34 34 34h130q34 0 34 -34v-512q0 -20 24 -20h434q20 0 20 20v512q0 34 34 34h132q34 0 34 -34v-1248q0 -34 -34 -34h-132q-34 0 -34 34v518q0 22 -20 22h-434q-24 0 -24 -22v-518q0 -34 -34 -34h-130q-34 0 -34 34z" />
<glyph unicode="I" d="M494 34v1248q0 34 36 34h128q36 0 36 -34v-1248q0 -34 -36 -34h-128q-36 0 -36 34z" />
<glyph unicode="J" d="M174 318v184q0 34 36 34h128q36 0 36 -34v-176q0 -152 148 -152h144q148 0 148 152v956q0 34 36 34h130q34 0 34 -32v-966q0 -150 -84 -234t-232 -84h-206q-152 0 -234 84q-84 84 -84 234z" />
<glyph unicode="K" d="M124 34v1248q0 34 34 34h130q34 0 34 -34v-650h6q22 56 54 104q130 182 392 546q22 34 64 34h152q44 0 14 -38q-132 -180 -398 -542q112 -174 450 -696q8 -14 8 -22q0 -18 -32 -18h-116q-54 0 -78 34q-118 186 -354 556q-40 -48 -162 -190v-366q0 -34 -34 -34h-130 q-34 0 -34 34z" />
<glyph unicode="L" d="M228 34v1248q0 34 34 34h130q34 0 34 -34v-1084q0 -20 24 -20h476q34 0 34 -36v-108q0 -34 -34 -34h-664q-34 0 -34 34z" />
<glyph unicode="M" d="M12 34v1248q0 34 34 34h230q22 0 32 -22q94 -264 280 -790h12q70 198 282 790q4 22 30 22h230q34 0 34 -34v-1248q0 -34 -34 -34h-128q-34 0 -34 34v1036h-8q-66 -188 -266 -750q-12 -34 -46 -34h-130q-32 0 -44 34q-90 250 -272 752h-8v-1038q0 -20 -8 -26q-6 -8 -26 -8 h-126q-34 0 -34 34z" />
<glyph unicode="N" d="M146 34v1248q0 34 36 34h114q32 0 44 -22q166 -296 496 -890h8v878q0 34 36 34h126q36 0 36 -34v-1248q0 -34 -36 -34h-110q-32 0 -54 32q-164 294 -490 882h-8v-880q0 -34 -36 -34h-126q-36 0 -36 34z" />
<glyph unicode="O" d="M156 318v682q0 150 84 234q82 82 234 82h238q152 0 236 -82q84 -84 84 -234v-682q0 -150 -84 -234t-236 -84h-238q-152 0 -234 84q-84 84 -84 234zM356 326q0 -152 146 -152h178q150 0 150 152v666q0 150 -150 150h-178q-146 0 -146 -150v-666z" />
<glyph unicode="P" d="M174 34v1248q0 34 34 34h488q150 0 234 -82q84 -84 84 -234v-214q0 -150 -84 -234t-234 -84h-298q-26 0 -26 -20v-414q0 -34 -34 -34h-130q-34 0 -34 34zM372 666q0 -20 24 -20h272q146 0 146 150v196q0 150 -146 150h-272q-24 0 -24 -20v-456z" />
<glyph unicode="Q" d="M156 318v682q0 150 84 234q84 82 236 82h238q152 0 234 -82q84 -84 84 -234v-682q0 -134 -68 -214q-66 -82 -186 -98q44 -78 136 -236q10 -20 2 -32q-8 -10 -26 -10h-114q-46 0 -66 34q-46 80 -140 238h-94q-152 0 -236 84t-84 234zM360 326q0 -152 146 -152h180 q146 0 146 152v666q0 150 -146 150h-180q-146 0 -146 -150v-666z" />
<glyph unicode="R" d="M158 34v1248q0 34 34 34h480q148 0 234 -84q84 -86 84 -234v-172q0 -236 -194 -298v-8q58 -120 228 -480q6 -12 6 -22q0 -18 -34 -18h-126q-50 0 -64 34q-72 158 -218 472h-208q-24 0 -24 -20v-452q0 -34 -34 -34h-130q-34 0 -34 34zM356 690q0 -20 22 -20h260 q152 0 152 150v172q0 150 -152 150h-260q-22 0 -22 -20v-432z" />
<glyph unicode="S" horiz-adv-x="1186" d="M158 320v52q0 36 36 36h130q36 0 36 -36v-36q0 -86 38 -124t126 -38h140q88 0 128 40q38 40 38 130v48q0 64 -50 102t-124 48q-74 14 -162 34t-162 46q-72 28 -124 100q-50 74 -50 190v86q0 148 86 234q84 84 234 84h218q150 0 236 -84q84 -86 84 -234v-46q0 -34 -34 -34 h-132q-34 0 -34 34v26q0 90 -38 126q-38 38 -126 38h-128q-88 0 -126 -40t-38 -136v-62q0 -92 132 -126q60 -14 130 -24q72 -10 142 -32q72 -20 132 -54t96 -102q38 -68 38 -166v-80q0 -150 -86 -236q-84 -84 -234 -84h-230q-150 0 -236 84q-86 86 -86 236z" />
<glyph unicode="T" d="M178 1178v104q0 34 36 34h760q36 0 36 -34v-104q0 -36 -36 -36h-258q-22 0 -22 -20v-1088q0 -34 -36 -34h-128q-38 0 -38 34v1088q0 20 -20 20h-258q-36 0 -36 36z" />
<glyph unicode="U" d="M162 318v964q0 34 34 34h130q34 0 34 -34v-956q0 -152 148 -152h168q150 0 150 152v956q0 34 34 34h130q36 0 36 -32v-966q0 -150 -84 -234q-86 -84 -236 -84h-226t-234 84t-84 234z" />
<glyph unicode="V" d="M108 1292q0 24 34 24h146q32 0 38 -34q88 -356 264 -1070h8q66 268 262 1070q8 34 42 34h142q36 0 36 -24q0 -6 -2 -14q-114 -414 -342 -1244q-8 -34 -40 -34h-202q-34 0 -44 34q-112 416 -340 1244q-2 8 -2 14z" />
<glyph unicode="W" d="M-184 1282v8q0 26 34 26h158q38 0 40 -34q56 -358 166 -1074h14q60 270 240 1078q4 30 38 30h172q32 0 38 -30q82 -358 244 -1078h12q42 268 166 1072q2 36 42 36h158q34 0 34 -26v-10q-82 -416 -244 -1246q-6 -34 -40 -34h-218q-34 0 -40 34q-78 346 -232 1038h-8 q-58 -260 -232 -1038q-6 -34 -38 -34h-218q-36 0 -42 34q-82 416 -244 1248z" />
<glyph unicode="X" d="M110 22q0 6 4 14q114 216 338 646q-80 150 -324 598q-8 14 0 26q8 10 24 10h144q42 0 58 -34q78 -158 236 -476h8q58 120 236 476q18 34 52 34h152q16 0 24 -12q6 -12 0 -26q-108 -198 -326 -596q84 -160 336 -644q6 -8 6 -16q0 -6 -2 -10q-8 -12 -26 -12h-154 q-32 0 -46 32q-84 168 -252 500h-8q-64 -124 -252 -500q-14 -32 -50 -32h-150q-18 0 -24 10q-4 6 -4 12z" />
<glyph unicode="Y" d="M106 1296q0 6 4 10q8 10 22 10h164q28 0 42 -34l252 -564h12q62 142 248 564q12 34 40 34h164q16 0 24 -10q4 -4 4 -10q0 -8 -4 -16l-384 -792v-454q0 -34 -34 -34h-132q-34 0 -34 34v454l-384 792q-4 8 -4 16z" />
<glyph unicode="Z" d="M170 34v98q0 52 18 74q198 306 592 916v8h-542q-38 0 -38 36v116q0 34 38 34h724q36 0 36 -34v-136q0 -44 -24 -78q-188 -292 -568 -874v-8h578q34 0 34 -32v-116q0 -38 -34 -38h-780q-34 0 -34 34z" />
<glyph unicode="[" d="M416 -166v1448q0 34 34 34h286q36 0 36 -34v-70q0 -34 -36 -34h-132q-24 0 -24 -22v-1200q0 -20 24 -20h132q36 0 36 -34v-70q0 -34 -36 -34h-286q-34 0 -34 36z" />
<glyph unicode="\" d="M264 1296q0 20 28 20h120q34 0 48 -36q48 -120 232 -624t228 -620q4 -8 4 -14q0 -22 -32 -22h-116q-36 0 -48 36q-154 414 -460 1242q-4 10 -4 18z" />
<glyph unicode="]" horiz-adv-x="1186" d="M416 -98q0 34 36 34h132q24 0 24 20v1200q0 22 -24 22h-132q-36 0 -36 34v70q0 34 36 34h286q34 0 34 -34v-1448q0 -36 -34 -36h-286q-36 0 -36 34v70z" />
<glyph unicode="^" d="M188 762q0 8 6 18q84 162 254 486q16 30 30 40t46 10h140q32 0 46 -10t30 -40q86 -162 254 -486q6 -10 6 -18q2 -18 -30 -18h-118q-30 0 -46 34q-72 138 -214 412q-52 -104 -210 -412q-18 -34 -48 -34h-116q-32 0 -30 18z" />
<glyph unicode="_" d="M212 -140q0 36 36 36h692q34 0 34 -36v-42q0 -38 -34 -38h-692q-36 0 -36 38v42z" />
<glyph unicode="`" d="M420 1424q0 4 2 6q4 10 22 10h160q36 0 52 -34q34 -64 104 -196q8 -12 8 -20q0 -14 -22 -14h-98q-28 0 -48 24l-174 204q-6 12 -6 20z" />
<glyph unicode="a" d="M188 318v410q0 150 82 234q84 82 234 82h460q36 0 36 -34v-976q0 -34 -36 -34h-130q-34 0 -34 34v74h-8q-50 -108 -208 -108h-80q-150 0 -234 84q-82 84 -82 234zM386 326q0 -152 148 -152h98q168 0 168 174v502q0 20 -22 20h-244q-148 0 -148 -152v-392z" />
<glyph unicode="b" d="M182 34v1370q0 36 36 36h128q34 0 34 -36v-462h10q50 110 206 110h90q152 0 236 -82q84 -84 84 -232v-420q0 -150 -84 -234t-236 -84h-468q-36 0 -36 34zM380 196q0 -22 24 -22h254q146 0 146 152v402q0 150 -146 150h-110q-168 0 -168 -172v-510z" />
<glyph unicode="c" d="M266 318v410q0 150 84 234q82 82 234 82h300q38 0 38 -34v-106q0 -34 -38 -34h-272q-148 0 -148 -152v-392q0 -152 148 -152h272q38 0 38 -34v-108q0 -32 -38 -32h-300q-152 0 -234 84q-84 84 -84 234z" />
<glyph unicode="d" d="M182 318v410q0 152 80 234q78 82 226 82h104q158 0 204 -108h8v468q0 36 36 36h130q36 0 36 -36v-1370q0 -34 -36 -34h-130q-36 0 -36 34v74h-8q-46 -108 -204 -108h-104q-148 0 -226 82q-80 84 -80 236zM380 326q0 -152 148 -152h108q168 0 168 174v348q0 174 -168 174 h-108q-148 0 -148 -152v-392z" />
<glyph unicode="e" d="M192 318v410q0 150 82 234q84 82 234 82h168q152 0 236 -82q84 -84 84 -234v-262q0 -36 -36 -36h-550q-22 0 -22 -20v-88q0 -150 150 -150h414q36 0 36 -36v-104q0 -32 -36 -32h-444q-150 0 -234 84q-82 84 -82 234zM390 590q0 -20 20 -20h368q20 0 20 20v130 q0 78 -36 114q-34 36 -112 36h-112q-78 0 -114 -36q-34 -36 -34 -114v-130z" />
<glyph unicode="f" d="M296 906v106q0 18 8 26q6 6 26 6h110q22 0 22 20v60q0 152 78 234t226 82h92q34 0 34 -34v-106q0 -34 -34 -34h-62q-74 0 -104 -36t-30 -116v-50q0 -20 22 -20h172q36 0 36 -32v-106q0 -36 -36 -36h-172q-22 0 -22 -20v-816q0 -34 -36 -34h-130q-34 0 -34 34v816 q0 20 -22 20h-110q-34 0 -34 36z" />
<glyph unicode="g" d="M188 368v360q0 150 84 234q84 82 232 82h460q36 0 36 -34v-1014q0 -150 -84 -232q-86 -84 -236 -84h-384q-34 0 -34 34v106q0 34 34 34h354q150 0 150 152v156h-8q-52 -110 -208 -110h-92q-146 0 -226 82q-78 84 -78 234zM388 378q0 -150 146 -150h98q168 0 168 172v450 q0 20 -22 20h-244q-146 0 -146 -152v-340z" />
<glyph unicode="h" d="M188 34v1370q0 36 34 36h130q34 0 34 -36v-468h8q50 108 208 108h90q148 0 228 -82t80 -234v-694q0 -34 -36 -34h-130q-34 0 -34 34v684q0 152 -150 152h-96q-168 0 -168 -174v-662q0 -34 -34 -34h-130q-34 0 -34 34z" />
<glyph unicode="i" d="M494 34v976q0 34 34 34h130q36 0 36 -34v-976q0 -20 -8 -26q-8 -8 -26 -8h-130q-36 0 -36 34zM494 1218v186q0 34 34 34h132q34 0 34 -34v-186q0 -34 -34 -34h-132q-34 0 -34 34z" />
<glyph unicode="j" d="M362 -180q0 34 36 34h52q96 0 136 42q40 40 40 136v978q0 34 36 34h128q36 0 36 -34v-1012q0 -150 -86 -234q-84 -84 -234 -84h-108q-36 0 -36 36v104zM626 1218v186q0 34 34 34h132q34 0 34 -34v-186q0 -34 -34 -34h-132q-34 0 -34 34z" />
<glyph unicode="k" d="M198 34v1370q0 36 36 36h128q36 0 36 -36v-1370q0 -34 -36 -34h-128q-36 0 -36 34zM464 508q-14 26 0 56q90 148 270 448q18 32 58 32h148q18 0 26 -10q6 -12 -6 -30q-96 -154 -288 -460v-8l312 -496q4 -8 6 -16q0 -6 -4 -12q-6 -12 -30 -12h-132q-48 0 -70 34 q-96 158 -290 474z" />
<glyph unicode="l" d="M494 34v1370q0 36 36 36h128q36 0 36 -36v-1370q0 -34 -36 -34h-128q-36 0 -36 34z" />
<glyph unicode="m" d="M-88 34v976q0 34 34 34h130q34 0 34 -34v-74h8q60 108 218 108h68q178 0 254 -134q32 64 100 100q68 34 146 34h64q150 0 230 -82q78 -84 78 -234v-694q0 -34 -34 -34h-132q-34 0 -34 34v684q0 152 -148 152h-60q-170 0 -170 -178v-658q0 -34 -36 -34h-130q-34 0 -34 34 v684q0 152 -148 152h-72q-168 0 -168 -174v-662q0 -34 -34 -34h-130q-34 0 -34 34z" />
<glyph unicode="n" d="M188 34v976q0 34 34 34h130q34 0 34 -34v-74h8q50 108 208 108h90q148 0 228 -82t80 -234v-694q0 -34 -36 -34h-130q-34 0 -34 34v684q0 152 -150 152h-96q-168 0 -168 -174v-662q0 -34 -34 -34h-130q-34 0 -34 34z" />
<glyph unicode="o" d="M186 318v410q0 150 82 234q84 82 234 82h182q148 0 234 -82q84 -84 84 -234v-410q0 -150 -84 -234q-86 -84 -234 -84h-182q-150 0 -234 84q-82 84 -82 234zM384 324q0 -78 34 -114q36 -36 114 -36h124q148 0 148 150v396q0 150 -148 150h-124q-78 0 -114 -36 q-34 -36 -34 -114v-396z" />
<glyph unicode="p" d="M182 -254v1264q0 34 36 34h128q34 0 34 -34v-74h10q48 108 206 108h104q148 0 226 -82q80 -82 80 -234v-410q0 -152 -80 -236q-78 -82 -226 -82h-104q-158 0 -206 108h-10v-362q0 -34 -34 -34h-128q-36 0 -36 34zM380 348q0 -174 168 -174h110q146 0 146 152v392 q0 152 -146 152h-110q-168 0 -168 -174v-348z" />
<glyph unicode="q" d="M188 318v410q0 150 82 234q84 82 234 82h460q36 0 36 -34v-1264q0 -34 -36 -34h-130q-34 0 -34 34v366h-8q-56 -112 -212 -112h-76q-150 0 -234 84q-82 84 -82 234zM386 326q0 -152 148 -152h94q172 0 172 178v498q0 20 -22 20h-244q-148 0 -148 -152v-392z" />
<glyph unicode="r" d="M330 34v976q0 34 36 34h128q36 0 36 -34v-78h8q20 52 78 82t130 30h76q36 0 36 -34v-106q0 -40 -36 -34h-122q-170 0 -170 -186v-650q0 -34 -36 -34h-128q-36 0 -36 34z" />
<glyph unicode="s" d="M232 780q0 264 294 264h340q32 0 32 -34v-100q0 -36 -32 -36h-300q-62 0 -94 -22q-32 -20 -32 -56v-22q0 -66 104 -114q74 -38 226 -116q106 -46 146 -110q40 -66 40 -168q0 -266 -306 -266h-376q-36 0 -36 34v102q0 32 36 32h344q132 0 132 92v24q0 82 -96 126 q-74 36 -222 106q-106 50 -152 108q-48 60 -48 156z" />
<glyph unicode="t" d="M282 904v106q0 34 34 34h98q22 0 22 20v186q0 34 36 34h130q34 0 34 -34v-186q0 -20 22 -20h190q38 0 38 -34v-106q0 -34 -38 -34h-190q-22 0 -22 -20v-526q0 -150 154 -150h80q36 0 36 -34v-108q0 -32 -36 -32h-112q-150 0 -236 82t-86 232v536q0 20 -22 20h-98 q-20 0 -28 8q-6 6 -6 26z" />
<glyph unicode="u" d="M188 318v692q0 34 34 34h130q34 0 34 -34v-684q0 -152 148 -152h98q168 0 168 174v662q0 34 34 34h130q36 0 36 -34v-976q0 -34 -36 -34h-130q-34 0 -34 34v74h-8q-50 -108 -208 -108h-92q-146 0 -226 82q-78 84 -78 236z" />
<glyph unicode="v" d="M172 1022q0 22 26 22h138q32 0 38 -34q72 -274 214 -824h14l208 824q8 34 44 34h134q28 0 28 -20q0 -6 -2 -14q-94 -324 -278 -974q-8 -36 -44 -36h-198q-36 0 -44 36q-92 326 -276 974q-2 6 -2 12z" />
<glyph unicode="w" d="M-72 1022q0 22 26 22h148q36 0 42 -34q48 -258 148 -774h14q46 194 182 774q6 34 38 34h136q34 0 42 -34q58 -258 176 -774h14q38 194 150 774q6 34 42 34h146q28 0 28 -20q0 -6 -2 -14q-80 -326 -236 -976q-6 -34 -42 -34h-176q-32 0 -40 34q-56 254 -164 760h-14 q-42 -190 -162 -760q-6 -34 -42 -34h-176q-30 0 -40 34q-78 326 -236 976q-2 6 -2 12z" />
<glyph unicode="x" d="M180 16q0 8 8 18q90 166 272 498q-66 120 -266 478q-22 34 18 34h158q38 0 54 -34q54 -118 166 -352h8q38 88 154 352q16 34 52 34h156q42 0 20 -34q-86 -158 -258 -476q70 -124 278 -500q8 -10 8 -18q0 -16 -26 -16h-162q-34 0 -48 34q-58 122 -174 364h-8 q-44 -92 -172 -364q-16 -34 -52 -34h-156q-30 0 -30 16z" />
<glyph unicode="y" d="M160 1022q0 22 28 22h138q32 0 40 -34q76 -268 224 -804h8q56 202 224 804q6 34 40 34h132q34 0 34 -26q0 -6 -2 -10q-94 -328 -280 -986q-48 -172 -134 -262q-86 -92 -246 -92h-108q-34 0 -34 36v104q0 36 34 36h48q124 0 172 50q48 48 82 162h-82q-32 0 -44 34 q-90 306 -272 920q-2 6 -2 12z" />
<glyph unicode="z" d="M216 34v54q0 52 28 88q158 228 474 686v8h-448q-38 0 -38 38v102q0 34 38 34h646q36 0 36 -34v-94q0 -50 -26 -78q-148 -218 -448 -656v-8h456q38 0 38 -36v-104q0 -34 -38 -34h-682q-36 0 -36 34z" />
<glyph unicode="{" d="M362 502v104q0 36 38 36q100 0 100 126v232q0 316 278 316h12q36 0 36 -34v-76q0 -34 -36 -34h-6q-68 0 -94 -36q-28 -36 -28 -116v-266q0 -162 -122 -202q122 -34 122 -198v-266q0 -80 28 -116q26 -36 94 -36h6q36 0 36 -34v-76q0 -34 -36 -34h-12q-278 0 -278 316v232 q0 124 -100 124q-38 0 -38 38z" />
<glyph unicode="|" d="M524 34v1248q0 34 34 34h70q36 0 36 -34v-1248q0 -34 -36 -34h-70q-34 0 -34 34z" />
<glyph unicode="}" d="M362 -98q0 34 38 34h6q68 0 94 36t26 116v266q0 164 122 198q-122 42 -122 202v266q0 80 -26 116t-94 36h-6q-38 0 -38 34v76q0 34 38 34h12q278 0 278 -316v-232q0 -126 100 -126q36 0 36 -36v-104q0 -38 -44 -38q-92 0 -92 -124v-232q0 -316 -278 -316h-12 q-38 0 -38 34v76z" />
<glyph unicode="~" d="M176 586v88q0 40 48 64q80 30 156 30q78 0 210 -32q136 -32 200 -32q66 0 128 28q64 28 70 28q24 0 24 -24v-90q0 -42 -48 -64q-72 -32 -156 -32q-82 0 -222 32q-138 32 -196 32t-120 -28q-62 -26 -70 -26q-24 0 -24 26z" />
<glyph unicode="&#xa0;" />
<glyph unicode="&#xa1;" d="M484 34v276q0 212 32 520q6 36 36 36h84q30 0 36 -36q32 -308 32 -520v-276q0 -34 -36 -34h-148q-36 0 -36 34zM494 1034v246q0 36 34 36h136q34 0 34 -34v-250q0 -32 -34 -32h-136q-34 0 -34 34z" />
<glyph unicode="&#xa2;" d="M252 318v410q0 146 80 232q78 84 220 84h34v168q0 36 36 36h98q32 0 32 -34v-170h124q20 0 40 -8q18 -10 18 -26v-106q0 -34 -36 -34h-298q-148 0 -148 -152v-392q0 -152 148 -152h298q36 0 36 -32v-108q0 -34 -36 -34h-146v-158q0 -32 -32 -32h-98q-36 0 -36 34v156h-34 q-142 0 -220 84q-80 86 -80 234z" />
<glyph unicode="&#xa3;" d="M130 34v96q0 36 36 36h18q38 0 64 36q26 38 26 100v226h-108q-36 0 -36 38v94q0 34 36 34h108v310q0 150 84 230q86 82 234 82h134q150 0 234 -82q84 -80 84 -230v-54t-36 -36h-128q-38 0 -38 36v50q0 78 -34 112t-112 34h-74q-152 0 -152 -146v-306h266q36 0 36 -34v-94 q0 -38 -36 -38h-266v-202q0 -68 -26 -110t-56 -42v-8h634q36 0 36 -36v-96q0 -34 -36 -34h-856q-36 0 -36 34z" />
<glyph unicode="&#xa5;" d="M104 1298q0 18 28 18h164q18 0 24 -6q4 -6 270 -612h8l256 584q8 20 16 28q6 6 22 6h164q28 0 28 -18q0 -6 -4 -16q-84 -172 -250 -514h176q38 0 38 -40v-62q0 -20 -8 -30q-8 -8 -30 -8h-244q-16 -32 -62 -126v-36h306q38 0 38 -40v-62q0 -20 -8 -28t-30 -8h-312v-294 q0 -34 -34 -34h-132q-34 0 -34 34v294h-314q-38 0 -38 36v62t38 40h308v36q-16 32 -62 126h-246q-38 0 -38 38v62q0 40 38 40h180q-62 128 -252 514q-4 10 -4 16z" />
<glyph unicode="&#xa6;" d="M522 34v484q0 38 36 38h72q36 0 36 -38v-484q0 -34 -36 -34h-72q-36 0 -36 34zM522 798v484q0 34 36 34h72q36 0 36 -34v-484q0 -34 -36 -34h-72q-36 0 -36 34z" />
<glyph unicode="&#xa7;" horiz-adv-x="1186" d="M230 694v354q0 126 76 198q74 70 230 70h336q34 0 34 -34v-106q0 -34 -34 -34h-330q-112 0 -112 -104q0 -44 28 -72q30 -26 110 -42q62 -14 190 -40q200 -44 200 -254v-352q0 -130 -78 -204t-238 -74h-350q-36 0 -36 34v108q0 32 36 32h334q76 0 104 28q28 30 28 78 q0 52 -30 76q-32 22 -108 40q-64 12 -192 38q-198 46 -198 260zM416 706q0 -102 114 -126q42 -10 126 -28q64 -12 116 -40v106q0 92 -112 120q-44 8 -130 28q-72 18 -114 42v-102z" />
<glyph unicode="&#xa8;" d="M316 1210v194q0 36 34 36h122q32 0 32 -34v-196q0 -34 -32 -34h-122q-34 0 -34 34zM684 1210v194q0 36 32 36h124q32 0 32 -34v-196q0 -34 -32 -34h-124q-32 0 -32 34z" />
<glyph unicode="&#xa9;" d="M2 262v792q0 124 70 194q72 68 192 68h658q122 0 194 -68q70 -70 70 -194v-792q0 -122 -70 -192q-72 -70 -194 -70h-658q-120 0 -192 70q-70 70 -70 192zM136 284q0 -162 166 -162h582q166 0 166 162v748q0 162 -166 162h-582q-166 0 -166 -162v-748zM318 490v336 q0 222 232 222h88q234 0 234 -222v-52q0 -24 -24 -24h-84q-24 0 -24 24v30q0 78 -28 102q-26 24 -108 24h-20q-82 0 -106 -24q-26 -24 -26 -102v-292q0 -82 26 -106q24 -24 106 -24h20q84 0 110 24t26 106v32q0 28 24 28h84q24 0 24 -28v-54q0 -224 -234 -224h-88 q-112 0 -172 56t-60 168z" />
<glyph unicode="&#xab;" d="M246 492v68q0 36 32 60q98 84 296 250q16 12 26 8q10 -6 10 -24v-88q0 -30 -30 -52q-74 -62 -224 -190q56 -46 224 -188q30 -24 30 -52v-90q0 -18 -10 -22q-10 -6 -26 6q-98 84 -296 250q-32 24 -32 64zM576 492v68q0 38 34 60q98 84 296 250q10 10 18 10q4 0 6 -2 q12 -6 12 -24v-88q0 -28 -32 -52q-76 -62 -224 -190q56 -46 224 -188q32 -24 32 -52v-90q0 -18 -12 -24q-2 -2 -6 -2q-8 0 -18 10q-100 84 -296 250q-34 26 -34 64z" />
<glyph unicode="&#xad;" d="M356 608v90q0 38 36 38h404q36 0 36 -38v-90q0 -36 -36 -36h-404q-36 0 -36 36z" />
<glyph unicode="&#xae;" d="M252 978v294q0 92 56 146q56 52 152 52h270q94 0 150 -52q54 -54 54 -146v-294q0 -92 -54 -146q-56 -54 -150 -54h-270q-94 0 -150 54q-58 54 -58 146zM344 998q0 -136 132 -136h236q134 0 134 136v256q0 134 -134 134h-236q-132 0 -132 -134v-256zM472 962v326 q0 18 6 26q6 6 26 6h124q102 0 102 -94v-66q0 -66 -44 -84q14 -34 46 -104q20 -40 -20 -40h-20q-24 0 -34 22q-18 40 -52 118h-56v-110q0 -18 -6 -24t-24 -6h-16q-20 0 -26 6t-6 24zM550 1136h72q28 0 28 30v56q0 28 -28 28h-72v-114z" />
<glyph unicode="&#xaf;" d="M354 1274v70q0 34 38 34h406q36 0 36 -34v-70q0 -34 -36 -34h-406q-38 0 -38 34z" />
<glyph unicode="&#xb0;" d="M436 1144v200q0 96 100 96h114q46 0 74 -26t28 -70v-200q0 -46 -28 -72q-28 -28 -74 -28h-114q-100 0 -100 100zM526 1180q0 -32 10 -42t44 -10h26q32 0 44 10q10 10 10 42v124q0 34 -10 44q-12 10 -44 10h-26q-34 0 -44 -10t-10 -44v-124z" />
<glyph unicode="&#xb1;" d="M176 276v86q0 38 38 38h760q38 0 38 -38v-86q0 -38 -38 -38h-760q-38 0 -38 38zM176 744v84q0 38 38 38h294v170q0 42 40 42h92q40 0 40 -42v-170h294q38 0 38 -38v-84q0 -40 -38 -40h-294v-174q0 -38 -40 -38h-92q-40 0 -40 38v174h-294q-38 0 -38 40z" />
<glyph unicode="&#xb4;" d="M420 1190q0 8 6 20q34 66 104 196q16 34 54 34h158q20 0 24 -10q2 -2 2 -4q0 -10 -8 -22l-174 -204q-20 -24 -48 -24h-96q-22 0 -22 14z" />
<glyph unicode="&#xb6;" d="M180 906v158q0 132 80 192q78 60 204 60h508q36 0 36 -32v-1250q0 -34 -34 -34h-96q-36 0 -36 34v1108q0 22 -22 22h-198q-22 0 -22 -22v-1108q0 -34 -36 -34h-96q-34 0 -34 34v622q-112 0 -184 62q-70 62 -70 188z" />
<glyph unicode="&#xb7;" d="M490 528v248q0 32 34 32h140q34 0 34 -32v-248q0 -36 -34 -36h-140q-34 0 -34 36z" />
<glyph unicode="&#xb8;" d="M444 -126q0 22 18 42q36 42 110 124h132q-30 -28 -116 -118v-8q156 0 156 -144v-30q0 -136 -186 -136h-76q-20 0 -24 6q-6 8 -6 26v34q0 18 6 24q4 6 24 6h58q58 0 78 14q20 12 20 42v4q0 34 -20 44q-20 12 -78 12h-40q-38 0 -50 36q-6 12 -6 22z" />
<glyph unicode="&#xbb;" d="M246 194v90q0 28 28 52q76 62 226 188q-56 48 -226 190q-28 22 -28 52v88q0 18 8 24q10 4 26 -8q100 -82 298 -250q32 -24 32 -60v-68q0 -40 -32 -64q-100 -84 -298 -250q-16 -12 -26 -6q-8 4 -8 22zM576 194v90q0 28 30 52q74 62 224 188q-56 48 -224 190q-30 22 -30 52 v88q0 18 10 24q2 2 6 2q8 0 18 -10q100 -82 298 -250q34 -24 34 -60v-68q0 -38 -34 -64q-100 -84 -298 -250q-10 -8 -18 -8q-4 0 -6 2q-10 4 -10 22z" />
<glyph unicode="&#xbf;" d="M220 314v42q0 102 94 184q40 34 120 98q42 38 54 64t12 64v62q0 36 34 36h122q34 0 34 -36v-60q0 -74 -22 -118t-82 -92q-34 -28 -100 -84q-72 -58 -72 -128v-28q0 -148 152 -148h54q150 0 150 148v58t34 38h130q34 0 34 -38v-62q0 -150 -84 -232t-232 -82h-116 q-148 0 -232 82t-84 232zM498 1030v250q0 34 32 34h142q30 0 30 -36v-246q0 -34 -30 -34h-142q-32 0 -32 32z" />
<glyph unicode="&#xc0;" d="M84 22q0 6 2 12q118 416 356 1248q10 34 50 34h204q42 0 50 -34q118 -416 356 -1248q2 -6 2 -12q0 -22 -24 -22h-146q-18 0 -26 8q-6 6 -10 26q-26 90 -78 268h-452q-18 -68 -78 -268q-8 -34 -36 -34h-148q-22 0 -22 22zM312 1702q6 10 24 10h160q34 0 50 -32l108 -198 q18 -34 -18 -34h-98q-28 0 -46 24q-58 68 -172 206q-12 14 -8 24zM410 464h370q-46 164 -182 656h-8q-46 -164 -180 -656z" />
<glyph unicode="&#xc1;" d="M84 22q0 6 2 12q118 416 356 1248q10 34 50 34h204q42 0 50 -34q118 -416 356 -1248q2 -6 2 -12q0 -22 -24 -22h-146q-18 0 -26 8q-6 6 -10 26q-26 90 -78 268h-452q-18 -68 -78 -268q-8 -34 -36 -34h-148q-22 0 -22 22zM410 464h370q-46 164 -182 656h-8 q-46 -164 -180 -656zM526 1482q36 66 106 198q18 32 52 32h160q18 0 24 -10q4 -10 -6 -24q-58 -68 -174 -206q-18 -24 -44 -24h-102q-30 0 -16 34z" />
<glyph unicode="&#xc2;" d="M84 22q0 6 2 12q118 416 356 1248q10 34 50 34h204q42 0 50 -34q118 -416 356 -1248q2 -6 2 -12q0 -22 -24 -22h-146q-18 0 -26 8q-6 6 -10 26q-26 90 -78 268h-452q-18 -68 -78 -268q-8 -34 -36 -34h-148q-22 0 -22 22zM372 1472q44 74 130 220q14 20 42 20h100 q28 0 42 -20q44 -74 132 -220q16 -24 -16 -24h-94q-22 0 -32 20q-28 54 -82 160q-22 -40 -84 -160q-6 -20 -30 -20h-92q-32 0 -16 24zM410 464h370q-46 164 -182 656h-8q-46 -164 -180 -656z" />
<glyph unicode="&#xc3;" d="M84 22q0 6 2 12q118 416 356 1248q10 34 50 34h204q42 0 50 -34q118 -416 356 -1248q2 -6 2 -12q0 -22 -24 -22h-146q-18 0 -26 8q-6 6 -10 26q-26 90 -78 268h-452q-18 -68 -78 -268q-8 -34 -36 -34h-148q-22 0 -22 22zM358 1596v80q0 20 20 20h62q20 0 20 -20v-42 q0 -50 10 -70q10 -18 28 -18q20 0 32 14t42 66q44 78 120 78q138 0 138 -158v-78q0 -24 -18 -24h-62q-20 0 -20 24v40q0 52 -10 70q-8 18 -30 18q-20 0 -30 -10l-20 -30t-14 -22q-2 -2 -16 -30q-36 -66 -112 -66q-140 0 -140 158zM410 464h370q-46 164 -182 656h-8 q-46 -164 -180 -656z" />
<glyph unicode="&#xc4;" d="M84 22q0 6 2 12q118 416 356 1248q10 34 50 34h204q42 0 50 -34q118 -416 356 -1248q2 -6 2 -12q0 -22 -24 -22h-146q-18 0 -26 8q-6 6 -10 26q-26 90 -78 268h-452q-18 -68 -78 -268q-8 -34 -36 -34h-148q-22 0 -22 22zM316 1482v196q0 34 32 34h124q30 0 30 -32v-198 q0 -34 -30 -34h-124q-32 0 -32 34zM410 464h370q-46 164 -182 656h-8q-46 -164 -180 -656zM684 1482v196q0 34 30 34h126q30 0 30 -32v-198q0 -34 -30 -34h-126q-30 0 -30 34z" />
<glyph unicode="&#xc5;" d="M84 22q0 6 2 12q118 416 356 1248q10 34 50 34h204q42 0 50 -34q118 -416 356 -1248q2 -6 2 -12q0 -22 -24 -22h-146q-18 0 -26 8q-6 6 -10 26q-26 90 -78 268h-452q-18 -68 -78 -268q-8 -34 -36 -34h-148q-22 0 -22 22zM410 464h370q-46 164 -182 656h-8 q-46 -164 -180 -656zM424 1560v106q0 122 122 122h88q60 0 94 -32q34 -34 34 -90v-106q0 -60 -34 -94q-34 -32 -94 -32h-88q-122 0 -122 126zM510 1586q0 -70 66 -70h28q38 0 52 16t14 54v48q0 40 -14 56t-50 16h-28q-68 0 -68 -72v-48z" />
<glyph unicode="&#xc6;" d="M-146 20q0 6 4 16q206 416 616 1246q16 34 56 34h770q34 0 34 -34v-104q0 -36 -34 -36h-468q-22 0 -22 -20v-346q0 -20 22 -20h396q38 0 38 -36v-104q0 -34 -38 -34h-396q-22 0 -22 -20v-366q0 -22 22 -22h468q34 0 34 -34v-106q0 -34 -34 -34h-656q-34 0 -34 34v268 h-406q-34 -68 -136 -268q-14 -34 -44 -34h-144q-28 0 -26 20zM282 480h328v642h-8q-80 -160 -320 -642z" />
<glyph unicode="&#xc7;" d="M158 318v682q0 150 82 234q84 82 236 82h236q150 0 234 -82q84 -84 84 -234v-98q0 -38 -36 -38h-130q-34 0 -34 38v90q0 150 -148 150h-178q-148 0 -148 -150v-666q0 -152 148 -152h178q148 0 148 152v90q0 36 34 36h130q36 0 36 -36v-98q0 -150 -84 -234t-234 -84h-18 q-22 -22 -86 -90v-8q156 0 156 -142v-32q0 -138 -184 -138h-78q-30 0 -30 34v32q0 20 6 28q6 6 24 6h60q56 0 76 12q22 12 22 40v6q0 32 -22 46q-20 12 -76 12h-44q-36 0 -50 34q-12 36 16 66q26 32 82 94h-90q-152 0 -236 84q-82 84 -82 234z" />
<glyph unicode="&#xc8;" d="M232 34v1248q0 34 36 34h654q34 0 34 -34v-104q0 -36 -34 -36h-466q-24 0 -24 -20v-346q0 -20 24 -20h394q38 0 38 -36v-104q0 -34 -38 -34h-394q-24 0 -24 -20v-366q0 -22 24 -22h466q34 0 34 -34v-106q0 -34 -34 -34h-654q-36 0 -36 34zM326 1702q4 10 22 10h158 q38 0 52 -32q36 -66 106 -198q16 -34 -16 -34h-98q-28 0 -48 24q-56 68 -172 206q-10 14 -4 24z" />
<glyph unicode="&#xc9;" d="M232 34v1248q0 34 36 34h654q34 0 34 -34v-104q0 -36 -34 -36h-466q-24 0 -24 -20v-346q0 -20 24 -20h394q38 0 38 -36v-104q0 -34 -38 -34h-394q-24 0 -24 -20v-366q0 -22 24 -22h466q34 0 34 -34v-106q0 -34 -34 -34h-654q-36 0 -36 34zM506 1482q36 66 106 198 q16 32 50 32h162q16 0 22 -10q4 -10 -6 -24q-56 -68 -172 -206q-20 -24 -48 -24h-96q-36 0 -18 34z" />
<glyph unicode="&#xca;" d="M232 34v1248q0 34 36 34h654q34 0 34 -34v-104q0 -36 -34 -36h-466q-24 0 -24 -20v-346q0 -20 24 -20h394q38 0 38 -36v-104q0 -34 -38 -34h-394q-24 0 -24 -20v-366q0 -22 24 -22h466q34 0 34 -34v-106q0 -34 -34 -34h-654q-36 0 -36 34zM368 1456q-4 6 2 16 q44 74 130 220q16 20 44 20h98q28 0 44 -20q42 -74 128 -220q16 -24 -12 -24h-94q-24 0 -34 20q-26 54 -82 160q-20 -40 -82 -160q-10 -20 -32 -20h-94q-12 0 -16 8z" />
<glyph unicode="&#xcb;" d="M232 34v1248q0 34 36 34h654q34 0 34 -34v-104q0 -36 -34 -36h-466q-24 0 -24 -20v-346q0 -20 24 -20h394q38 0 38 -36v-104q0 -34 -38 -34h-394q-24 0 -24 -20v-366q0 -22 24 -22h466q34 0 34 -34v-106q0 -34 -34 -34h-654q-36 0 -36 34zM316 1482v196q0 34 32 34h124 q32 0 32 -32v-198q0 -34 -32 -34h-124q-32 0 -32 34zM684 1482v196q0 34 32 34h122q36 0 36 -32v-198q0 -34 -36 -34h-122q-32 0 -32 34z" />
<glyph unicode="&#xcc;" d="M408 1694v8q6 10 22 10h160q38 0 52 -32q34 -66 106 -198q18 -34 -16 -34h-98q-30 0 -48 24q-58 68 -172 206q-6 8 -6 16zM582 34v1248q0 34 34 34h130q34 0 34 -34v-1248q0 -34 -34 -34h-130q-34 0 -34 34z" />
<glyph unicode="&#xcd;" d="M406 34v1248q0 34 36 34h128q34 0 34 -34v-1248q0 -34 -34 -34h-128q-36 0 -36 34zM440 1482q34 66 104 198q18 32 52 32h160q18 0 24 -10q2 -4 2 -6q0 -8 -10 -18q-56 -68 -172 -206q-18 -24 -46 -24h-98q-34 0 -16 34z" />
<glyph unicode="&#xce;" d="M366 1460q0 4 6 12q42 74 128 220q14 20 46 20h98q28 0 42 -20q44 -74 130 -220q6 -8 6 -14q0 -10 -18 -10h-98q-20 0 -30 20q-28 54 -84 160q-20 -40 -82 -160q-8 -20 -32 -20h-90q-22 0 -22 12zM496 34v1248q0 34 34 34h130q34 0 34 -34v-1248q0 -34 -34 -34h-130 q-34 0 -34 34z" />
<glyph unicode="&#xcf;" d="M314 1482v196q0 34 34 34h122q34 0 34 -32v-198q0 -34 -34 -34h-122q-34 0 -34 34zM494 34v1248q0 34 36 34h128q36 0 36 -34v-1248q0 -34 -36 -34h-128q-36 0 -36 34zM684 1482v196q0 34 32 34h122q36 0 36 -32v-198q0 -34 -36 -34h-122q-32 0 -32 34z" />
<glyph unicode="&#xd0;" d="M104 620v82q0 36 34 36h66q20 0 20 20v524q0 34 36 34h504q152 0 236 -82q84 -84 84 -234v-682q0 -150 -84 -234t-236 -84h-504q-36 0 -36 34v532q0 20 -20 20h-66q-34 0 -34 34zM424 196q0 -22 24 -22h286q150 0 150 152v666q0 150 -150 150h-286q-24 0 -24 -20v-364 q0 -20 24 -20h210q36 0 36 -36v-82q0 -34 -36 -34h-210q-24 0 -24 -20v-370z" />
<glyph unicode="&#xd1;" d="M146 34v1248q0 34 36 34h114q32 0 44 -22q166 -296 496 -890h8v878q0 34 36 34h126q36 0 36 -34v-1248q0 -34 -36 -34h-110q-32 0 -54 32q-164 294 -490 882h-8v-880q0 -34 -36 -34h-126q-36 0 -36 34zM362 1596v80q0 20 18 20h60q22 0 22 -20v-42q0 -52 8 -70t28 -18 q22 0 34 14t38 62q30 50 56 66t68 16q136 0 136 -158v-78q0 -24 -20 -24h-60q-20 0 -20 24v40q0 52 -10 70q-8 18 -28 18q-22 0 -30 -10q-10 -12 -22 -30q-10 -18 -12 -22q-2 -2 -4 -6q-28 -54 -56 -72t-72 -18q-134 0 -134 158z" />
<glyph unicode="&#xd2;" d="M156 318v682q0 150 84 234q82 82 234 82h238q152 0 236 -82q84 -84 84 -234v-682q0 -150 -84 -234t-236 -84h-238q-152 0 -234 84q-84 84 -84 234zM322 1702q4 10 22 10h158q38 0 52 -32q36 -66 106 -198q18 -34 -16 -34h-98q-28 0 -48 24q-56 68 -172 206q-10 14 -4 24z M356 326q0 -152 146 -152h178q150 0 150 152v666q0 150 -150 150h-178q-146 0 -146 -150v-666z" />
<glyph unicode="&#xd3;" d="M156 318v682q0 150 84 234q82 82 234 82h238q152 0 236 -82q84 -84 84 -234v-682q0 -150 -84 -234t-236 -84h-238q-152 0 -234 84q-84 84 -84 234zM356 326q0 -152 146 -152h178q150 0 150 152v666q0 150 -150 150h-178q-146 0 -146 -150v-666zM508 1482l108 198 q14 32 50 32h160q16 0 22 -10q4 -10 -6 -24q-56 -68 -172 -206q-18 -24 -46 -24h-98q-36 0 -18 34z" />
<glyph unicode="&#xd4;" d="M156 318v682q0 150 84 234q82 82 234 82h238q152 0 236 -82q84 -84 84 -234v-682q0 -150 -84 -234t-236 -84h-238q-152 0 -234 84q-84 84 -84 234zM356 326q0 -152 146 -152h178q150 0 150 152v666q0 150 -150 150h-178q-146 0 -146 -150v-666zM376 1472q42 74 128 220 q16 20 44 20h100q28 0 44 -20q42 -74 126 -220q16 -24 -12 -24h-94q-22 0 -32 20q-28 54 -84 160l-80 -160q-10 -20 -34 -20h-92q-30 0 -14 24z" />
<glyph unicode="&#xd5;" d="M156 318v682q0 150 84 234q82 82 234 82h238q152 0 236 -82q84 -84 84 -234v-682q0 -150 -84 -234t-236 -84h-238q-152 0 -234 84q-84 84 -84 234zM356 326q0 -152 146 -152h178q150 0 150 152v666q0 150 -150 150h-178q-146 0 -146 -150v-666zM358 1596v80q0 20 20 20 h62q20 0 20 -20v-42q0 -52 8 -70t28 -18q22 0 34 14t38 62q28 50 56 66q26 16 68 16q136 0 136 -158v-78q0 -24 -18 -24h-62q-20 0 -20 24v40q0 52 -8 70t-30 18t-30 -10q-10 -12 -38 -58q-28 -54 -56 -72t-72 -18q-136 0 -136 158z" />
<glyph unicode="&#xd6;" d="M156 318v682q0 150 84 234q82 82 234 82h238q152 0 236 -82q84 -84 84 -234v-682q0 -150 -84 -234t-236 -84h-238q-152 0 -234 84q-84 84 -84 234zM314 1482v196q0 34 34 34h122q32 0 32 -32v-198q0 -34 -32 -34h-122q-34 0 -34 34zM356 326q0 -152 146 -152h178 q150 0 150 152v666q0 150 -150 150h-178q-146 0 -146 -150v-666zM684 1482v196q0 34 32 34h122q34 0 34 -32v-198q0 -34 -34 -34h-122q-32 0 -32 34z" />
<glyph unicode="&#xd7;" d="M242 416q0 14 12 26q74 72 218 218q-54 52 -216 212q-26 30 0 56q24 22 68 68q14 14 28 14t28 -14l214 -214l214 214q28 28 54 0l68 -68q28 -26 0 -56l-212 -212q54 -54 214 -218q14 -12 14 -26t-14 -28q-22 -22 -70 -66q-12 -16 -26 -16q-12 0 -26 14l-216 216 l-216 -216q-30 -30 -54 2q-22 22 -68 66q-14 14 -14 28z" />
<glyph unicode="&#xd8;" d="M102 60q0 10 8 24q22 30 66 92q-24 62 -24 142v682q0 150 82 234q84 82 234 82h250q140 0 224 -70q12 18 38 54q14 20 32 18q10 0 22 -8t34 -24q18 -12 18 -28q0 -10 -8 -24q-22 -30 -66 -94q24 -60 24 -140v-682q0 -150 -84 -234t-234 -84h-250q-138 0 -220 72 q-14 -20 -42 -58q-14 -18 -30 -18q-12 2 -22 8q-12 8 -36 26q-16 14 -16 30zM350 420q118 164 470 658q-30 64 -130 64h-192q-148 0 -148 -150v-572zM366 240q36 -66 132 -66h192q148 0 148 152v572q-118 -166 -472 -658z" />
<glyph unicode="&#xd9;" d="M162 318v964q0 34 34 34h130q34 0 34 -34v-956q0 -152 148 -152h168q150 0 150 152v956q0 34 34 34h130q36 0 36 -32v-966q0 -150 -84 -234q-86 -84 -236 -84h-226t-234 84t-84 234zM324 1702q6 10 24 10h160q34 0 54 -32q34 -66 104 -198q16 -34 -16 -34h-100 q-28 0 -46 24q-58 68 -172 206q-12 14 -8 24z" />
<glyph unicode="&#xda;" d="M162 318v964q0 34 34 34h130q34 0 34 -34v-956q0 -152 148 -152h168q150 0 150 152v956q0 34 34 34h130q36 0 36 -32v-966q0 -150 -84 -234q-86 -84 -236 -84h-226t-234 84t-84 234zM518 1482q36 66 106 198q18 32 52 32h162q16 0 22 -10q4 -10 -6 -24q-58 -68 -174 -206 q-18 -24 -48 -24h-98q-32 0 -16 34z" />
<glyph unicode="&#xdb;" d="M162 318v964q0 34 34 34h130q34 0 34 -34v-956q0 -152 148 -152h168q150 0 150 152v956q0 34 34 34h130q36 0 36 -32v-966q0 -150 -84 -234q-86 -84 -236 -84h-226t-234 84t-84 234zM374 1472q44 74 130 220q14 20 42 20h102q28 0 42 -20q44 -74 130 -220q16 -24 -16 -24 h-92q-24 0 -32 20q-28 54 -84 160q-20 -40 -82 -160q-10 -20 -32 -20h-92q-32 0 -16 24z" />
<glyph unicode="&#xdc;" d="M162 318v964q0 34 34 34h130q34 0 34 -34v-956q0 -152 148 -152h168q150 0 150 152v956q0 34 34 34h130q36 0 36 -32v-966q0 -150 -84 -234q-86 -84 -236 -84h-226t-234 84t-84 234zM316 1482v196q0 34 32 34h124q30 0 30 -32v-198q0 -34 -30 -34h-124q-32 0 -32 34z M684 1482v196q0 34 30 34h126q30 0 30 -32v-198q0 -34 -30 -34h-126q-30 0 -30 34z" />
<glyph unicode="&#xdd;" d="M106 1296q0 6 4 10q8 10 22 10h164q28 0 42 -34l252 -564h12q62 142 248 564q12 34 40 34h164q16 0 24 -10q4 -4 4 -10q0 -8 -4 -16l-384 -792v-454q0 -34 -34 -34h-132q-34 0 -34 34v454l-384 792q-4 8 -4 16zM518 1482q34 66 104 198q16 32 52 32h162q16 0 20 -10 q6 -10 -4 -24q-58 -68 -172 -206q-20 -24 -50 -24h-96q-36 0 -16 34z" />
<glyph unicode="&#xde;" d="M226 34v1248q0 34 34 34h132q34 0 34 -34v-218q0 -20 22 -20h196q148 0 234 -82q84 -84 84 -234v-140q0 -152 -84 -234q-86 -84 -234 -84h-196q-22 0 -22 -20v-216q0 -34 -34 -34h-132q-34 0 -34 34zM426 466q0 -20 20 -20h166q78 0 112 36q36 36 36 114v122 q0 152 -148 152h-166q-20 0 -20 -20v-384z" />
<glyph unicode="&#xdf;" d="M164 34v966q0 150 84 234q84 82 234 82h204q148 0 232 -84q84 -86 84 -234v-114q0 -170 -146 -224q78 -16 122 -84t44 -160v-110q0 -150 -82 -228t-234 -78h-150q-36 0 -36 32v104q0 34 36 34h120q152 0 152 150v100q0 152 -168 152h-74q-34 0 -34 32v102q0 36 34 36h62 q160 0 160 150v106q0 148 -152 148h-146q-144 0 -144 -148v-964q0 -34 -36 -34h-130q-36 0 -36 34z" />
<glyph unicode="&#xe0;" d="M188 318v410q0 150 82 234q84 82 234 82h460q36 0 36 -34v-976q0 -34 -36 -34h-130q-34 0 -34 34v74h-8q-50 -108 -208 -108h-80q-150 0 -234 84q-82 84 -82 234zM386 326q0 -152 148 -152h98q168 0 168 174v502q0 20 -22 20h-244q-148 0 -148 -152v-392zM388 1430 q4 10 22 10h160q38 0 54 -34q36 -64 106 -196q16 -34 -18 -34h-98q-30 0 -48 24q-58 68 -172 204q-12 18 -6 26z" />
<glyph unicode="&#xe1;" d="M188 318v410q0 150 82 234q84 82 234 82h460q36 0 36 -34v-976q0 -34 -36 -34h-130q-34 0 -34 34v74h-8q-50 -108 -208 -108h-80q-150 0 -234 84q-82 84 -82 234zM386 326q0 -152 148 -152h98q168 0 168 174v502q0 20 -22 20h-244q-148 0 -148 -152v-392zM554 1210 q36 66 106 196q14 34 52 34h160q16 0 20 -10q6 -8 -4 -26q-58 -68 -172 -204q-18 -24 -50 -24h-96q-32 0 -16 34z" />
<glyph unicode="&#xe2;" d="M188 318v410q0 150 82 234q84 82 234 82h460q36 0 36 -34v-976q0 -34 -36 -34h-130q-34 0 -34 34v74h-8q-50 -108 -208 -108h-80q-150 0 -234 84q-82 84 -82 234zM386 326q0 -152 148 -152h98q168 0 168 174v502q0 20 -22 20h-244q-148 0 -148 -152v-392zM400 1184 q-4 8 2 16q44 74 132 220q14 20 42 20h98q30 0 44 -20q42 -74 128 -220q18 -24 -12 -24h-94q-24 0 -32 20q-28 54 -82 160q-20 -40 -82 -160q-10 -20 -34 -20h-94q-12 0 -16 8z" />
<glyph unicode="&#xe3;" d="M188 318v410q0 150 82 234q84 82 234 82h460q36 0 36 -34v-976q0 -34 -36 -34h-130q-34 0 -34 34v74h-8q-50 -108 -208 -108h-80q-150 0 -234 84q-82 84 -82 234zM386 326q0 -152 148 -152h98q168 0 168 174v502q0 20 -22 20h-244q-148 0 -148 -152v-392zM402 1336v78 q0 22 20 22h60q18 0 18 -22v-40q0 -50 10 -70q12 -18 30 -18q20 0 32 14t42 66q48 78 120 78q138 0 138 -158v-78q0 -24 -20 -24h-60q-20 0 -20 24v38q0 52 -10 70t-30 18t-30 -12t-36 -56q-46 -88 -126 -88q-138 0 -138 158z" />
<glyph unicode="&#xe4;" d="M188 318v410q0 150 82 234q84 82 234 82h460q36 0 36 -34v-976q0 -34 -36 -34h-130q-34 0 -34 34v74h-8q-50 -108 -208 -108h-80q-150 0 -234 84q-82 84 -82 234zM358 1210v194q0 36 32 36h124q32 0 32 -34v-196q0 -34 -32 -34h-124q-32 0 -32 34zM386 326 q0 -152 148 -152h98q168 0 168 174v502q0 20 -22 20h-244q-148 0 -148 -152v-392zM726 1210v194q0 36 32 36h124q32 0 32 -34v-196q0 -34 -32 -34h-124q-32 0 -32 34z" />
<glyph unicode="&#xe5;" d="M188 318v410q0 150 82 234q84 82 234 82h460q36 0 36 -34v-976q0 -34 -36 -34h-130q-34 0 -34 34v74h-8q-50 -108 -208 -108h-80q-150 0 -234 84q-82 84 -82 234zM386 326q0 -152 148 -152h98q168 0 168 174v502q0 20 -22 20h-244q-148 0 -148 -152v-392zM456 1254v122 q0 106 116 106h92q120 0 120 -106v-122q0 -114 -120 -114h-92q-116 0 -116 114zM534 1278q0 -38 14 -54q16 -14 56 -14h30q38 0 54 14q16 16 16 54v68q0 40 -14 54q-16 14 -54 14h-32q-40 0 -56 -14q-14 -14 -14 -54v-68z" />
<glyph unicode="&#xe6;" d="M-94 308v32q0 150 84 228q82 78 234 78h266q16 0 16 16v58q0 150 -146 150h-328q-36 0 -36 36v104q0 34 36 34h322q190 0 254 -120q62 120 248 120h108q150 0 234 -82q84 -84 84 -234v-284q0 -36 -38 -36h-514q-24 0 -24 -20v-62q0 -152 150 -152h388q38 0 38 -34v-108 q0 -32 -38 -32h-420q-176 0 -252 124q-68 -124 -278 -124h-70q-148 0 -232 80q-86 82 -86 228zM96 320q0 -80 38 -118t120 -38h84q168 0 168 172v144q0 20 -22 20h-230q-82 0 -120 -38q-38 -36 -38 -114v-28zM706 570q0 -24 22 -24h354q22 0 22 24v148q0 152 -148 152h-94 q-156 0 -156 -148v-152z" />
<glyph unicode="&#xe7;" d="M266 318v410q0 150 84 234q82 82 234 82h300q38 0 38 -34v-106q0 -34 -38 -34h-272q-148 0 -148 -152v-392q0 -152 148 -152h272q38 0 38 -34v-108q0 -32 -38 -32h-128q-20 -20 -76 -78v-8q156 0 156 -144v-30q0 -136 -184 -136h-76q-20 0 -28 6q-6 8 -6 26v34 q0 30 34 30h56q58 0 78 14q22 12 22 42v4q0 34 -20 44q-20 12 -80 12h-42q-38 0 -50 36t16 64q22 28 70 84h-42q-152 0 -234 84q-84 84 -84 234z" />
<glyph unicode="&#xe8;" d="M192 318v410q0 150 82 234q84 82 234 82h168q152 0 236 -82q84 -84 84 -234v-262q0 -36 -36 -36h-550q-22 0 -22 -20v-88q0 -150 150 -150h414q36 0 36 -36v-104q0 -32 -36 -32h-444q-150 0 -234 84q-82 84 -82 234zM336 1430q4 10 24 10h160q36 0 52 -34 q36 -64 106 -196q16 -34 -18 -34h-98q-28 0 -44 24l-174 204q-14 18 -8 26zM390 590q0 -20 20 -20h368q20 0 20 20v130q0 78 -36 114q-34 36 -112 36h-112q-78 0 -114 -36q-34 -36 -34 -114v-130z" />
<glyph unicode="&#xe9;" d="M192 318v410q0 150 82 234q84 82 234 82h168q152 0 236 -82q84 -84 84 -234v-262q0 -36 -36 -36h-550q-22 0 -22 -20v-88q0 -150 150 -150h414q36 0 36 -36v-104q0 -32 -36 -32h-444q-150 0 -234 84q-82 84 -82 234zM390 590q0 -20 20 -20h368q20 0 20 20v130 q0 78 -36 114q-34 36 -112 36h-112q-78 0 -114 -36q-34 -36 -34 -114v-130zM516 1210q34 66 106 196q16 34 52 34h158q18 0 24 -10q6 -8 -8 -26q-56 -68 -172 -204q-18 -24 -48 -24h-96q-36 0 -16 34z" />
<glyph unicode="&#xea;" d="M192 318v410q0 150 82 234q84 82 234 82h168q152 0 236 -82q84 -84 84 -234v-262q0 -36 -36 -36h-550q-22 0 -22 -20v-88q0 -150 150 -150h414q36 0 36 -36v-104q0 -32 -36 -32h-444q-150 0 -234 84q-82 84 -82 234zM380 1200q42 74 126 220q16 20 44 20h100q28 0 44 -20 q42 -74 128 -220q16 -24 -14 -24h-92q-24 0 -32 20q-28 54 -82 160q-22 -40 -84 -160q-10 -20 -32 -20h-94q-28 0 -12 24zM390 590q0 -20 20 -20h368q20 0 20 20v130q0 78 -36 114q-34 36 -112 36h-112q-78 0 -114 -36q-34 -36 -34 -114v-130z" />
<glyph unicode="&#xeb;" d="M192 318v410q0 150 82 234q84 82 234 82h168q152 0 236 -82q84 -84 84 -234v-262q0 -36 -36 -36h-550q-22 0 -22 -20v-88q0 -150 150 -150h414q36 0 36 -36v-104q0 -32 -36 -32h-444q-150 0 -234 84q-82 84 -82 234zM322 1210v194q0 36 34 36h120q34 0 34 -34v-196 q0 -34 -34 -34h-120q-34 0 -34 34zM390 590q0 -20 20 -20h368q20 0 20 20v130q0 78 -36 114q-34 36 -112 36h-112q-78 0 -114 -36q-34 -36 -34 -114v-130zM690 1210v194q0 36 34 36h120q36 0 36 -34v-196q0 -34 -36 -34h-120q-34 0 -34 34z" />
<glyph unicode="&#xec;" d="M406 1424q0 4 2 6q6 10 22 10h160q36 0 50 -34q36 -64 106 -196q18 -34 -16 -34h-98q-28 0 -46 24q-58 68 -172 204q-8 12 -8 20zM582 34v976q0 34 34 34h130q36 0 36 -34v-976q0 -20 -8 -26q-6 -8 -26 -8h-130q-36 0 -36 34z" />
<glyph unicode="&#xed;" d="M406 34v976q0 34 32 34h132q34 0 34 -34v-976q0 -20 -6 -26q-8 -8 -26 -8h-130q-36 0 -36 34zM442 1210q34 66 106 196q14 34 50 34h160q16 0 22 -10q2 -2 2 -6q0 -8 -8 -20q-56 -68 -172 -204q-18 -24 -48 -24h-96q-36 0 -16 34z" />
<glyph unicode="&#xee;" d="M366 1186q0 6 6 14q44 74 130 220q14 20 42 20h100q30 0 44 -20q42 -74 126 -220q6 -8 6 -14q2 -10 -18 -10h-94q-22 0 -30 20q-28 54 -84 160q-20 -40 -82 -160q-8 -20 -32 -20h-94q-18 0 -20 10zM496 34v976q0 34 32 34h132q34 0 34 -34v-976q0 -20 -8 -26 q-6 -8 -24 -8h-132q-34 0 -34 34z" />
<glyph unicode="&#xef;" d="M314 1210v194q0 36 34 36h122q34 0 34 -34v-196q0 -34 -34 -34h-122q-34 0 -34 34zM494 34v976q0 34 34 34h130q36 0 36 -34v-976q0 -20 -8 -26q-8 -8 -26 -8h-130q-36 0 -36 34zM684 1210v194q0 36 32 36h122q36 0 36 -34v-196q0 -34 -36 -34h-122q-32 0 -32 34z" />
<glyph unicode="&#xf0;" d="M194 318v204q0 152 84 234q82 84 234 84h80q74 0 136 -28q60 -30 84 -80h8q-14 68 -64 132q-64 72 -190 214q-46 -38 -178 -150q-28 -20 -50 8q-16 18 -48 56q-16 22 6 44q58 50 176 148q-34 38 -136 150q-30 32 6 62q22 16 64 48q32 22 60 -8q44 -48 132 -146 q46 40 184 156q16 12 28 12q10 -2 20 -12q16 -20 46 -60q26 -32 -2 -50q-60 -52 -180 -152q52 -58 208 -228q92 -106 92 -294v-344q0 -150 -84 -234t-234 -84h-164q-152 0 -234 84q-84 84 -84 234zM394 326q0 -152 146 -152h108q144 0 144 152v166q0 174 -154 174h-82 q-162 0 -162 -152v-188z" />
<glyph unicode="&#xf1;" d="M188 34v976q0 34 34 34h130q34 0 34 -34v-74h8q50 108 208 108h90q148 0 228 -82t80 -234v-694q0 -34 -36 -34h-130q-34 0 -34 34v684q0 152 -150 152h-96q-168 0 -168 -174v-662q0 -34 -34 -34h-130q-34 0 -34 34zM344 1336v78q0 22 20 22h60q22 0 22 -22v-40 q0 -54 8 -70q8 -18 28 -18t34 14q12 14 38 62q28 50 56 66q26 16 66 16q138 0 138 -158v-78q0 -24 -18 -24h-62q-20 0 -20 24v38q0 52 -8 70t-32 18q-20 0 -30 -12t-36 -56q-28 -54 -56 -70q-28 -18 -72 -18q-136 0 -136 158z" />
<glyph unicode="&#xf2;" d="M186 318v410q0 150 82 234q84 82 234 82h182q148 0 234 -82q84 -84 84 -234v-410q0 -150 -84 -234q-86 -84 -234 -84h-182q-150 0 -234 84q-82 84 -82 234zM328 1430q4 10 22 10h160q36 0 52 -34q34 -64 104 -196q22 -34 -16 -34h-98q-28 0 -48 24q-56 68 -172 204 q-10 18 -4 26zM384 324q0 -78 34 -114q36 -36 114 -36h124q148 0 148 150v396q0 150 -148 150h-124q-78 0 -114 -36q-34 -36 -34 -114v-396z" />
<glyph unicode="&#xf3;" d="M186 318v410q0 150 82 234q84 82 234 82h182q148 0 234 -82q84 -84 84 -234v-410q0 -150 -84 -234q-86 -84 -234 -84h-182q-150 0 -234 84q-82 84 -82 234zM384 324q0 -78 34 -114q36 -36 114 -36h124q148 0 148 150v396q0 150 -148 150h-124q-78 0 -114 -36 q-34 -36 -34 -114v-396zM526 1210q34 66 104 196q18 34 54 34h158q20 0 24 -10q6 -8 -6 -26q-58 -68 -172 -204q-22 -24 -50 -24h-96q-36 0 -16 34z" />
<glyph unicode="&#xf4;" d="M186 318v410q0 150 82 234q84 82 234 82h182q148 0 234 -82q84 -84 84 -234v-410q0 -150 -84 -234q-86 -84 -234 -84h-182q-150 0 -234 84q-82 84 -82 234zM368 1184q-4 8 2 16q44 74 130 220q16 20 44 20h98q28 0 44 -20q42 -74 128 -220q16 -24 -12 -24h-94 q-24 0 -34 20q-26 54 -82 160q-20 -40 -82 -160q-10 -20 -32 -20h-94q-12 0 -16 8zM384 324q0 -78 34 -114q36 -36 114 -36h124q148 0 148 150v396q0 150 -148 150h-124q-78 0 -114 -36q-34 -36 -34 -114v-396z" />
<glyph unicode="&#xf5;" d="M186 318v410q0 150 82 234q84 82 234 82h182q148 0 234 -82q84 -84 84 -234v-410q0 -150 -84 -234q-86 -84 -234 -84h-182q-150 0 -234 84q-82 84 -82 234zM346 1336v78q0 22 20 22h62q20 0 20 -22v-40q0 -54 8 -70q8 -18 28 -18t34 14q12 14 38 62q28 50 56 66 q26 16 66 16q138 0 138 -158v-78q0 -24 -18 -24h-62q-20 0 -20 24v38q0 52 -8 70t-32 18q-20 0 -30 -12t-36 -56q-28 -54 -56 -70q-28 -18 -72 -18q-136 0 -136 158zM384 324q0 -78 34 -114q36 -36 114 -36h124q148 0 148 150v396q0 150 -148 150h-124q-78 0 -114 -36 q-34 -36 -34 -114v-396z" />
<glyph unicode="&#xf6;" d="M186 318v410q0 150 82 234q84 82 234 82h182q148 0 234 -82q84 -84 84 -234v-410q0 -150 -84 -234q-86 -84 -234 -84h-182q-150 0 -234 84q-82 84 -82 234zM314 1210v194q0 36 34 36h122q32 0 32 -34v-196q0 -34 -32 -34h-122q-34 0 -34 34zM384 324q0 -78 34 -114 q36 -36 114 -36h124q148 0 148 150v396q0 150 -148 150h-124q-78 0 -114 -36q-34 -36 -34 -114v-396zM684 1210v194q0 36 32 36h122q34 0 34 -34v-196q0 -34 -34 -34h-122q-32 0 -32 34z" />
<glyph unicode="&#xf7;" d="M248 622v70q0 36 38 36h620q34 0 34 -36v-70q0 -34 -34 -34h-620q-38 0 -38 34zM526 318v110q0 32 34 32h70q36 0 36 -32v-110q0 -36 -36 -36h-70q-34 0 -34 36zM526 886v110q0 36 34 36h70q36 0 36 -36v-110q0 -34 -36 -34h-70q-34 0 -34 34z" />
<glyph unicode="&#xf8;" d="M98 90q0 14 14 26q28 30 88 88q-16 50 -16 114v410q0 150 84 234q84 82 236 82h178q168 0 254 -102l62 62q22 28 50 2q8 -10 28 -28q14 -12 14 -24t-14 -26l-88 -88q14 -50 14 -112v-410q0 -150 -84 -234t-236 -84h-178q-166 0 -252 102l-64 -64q-28 -26 -48 0l-28 28 q-14 12 -14 24zM386 392l402 402q-26 76 -134 76h-122q-146 0 -146 -152v-326zM398 248q26 -74 134 -74h122q148 0 148 152v328q-102 -102 -404 -406z" />
<glyph unicode="&#xf9;" d="M188 318v692q0 34 34 34h130q34 0 34 -34v-684q0 -152 148 -152h98q168 0 168 174v662q0 34 34 34h130q36 0 36 -34v-976q0 -34 -36 -34h-130q-34 0 -34 34v74h-8q-50 -108 -208 -108h-92q-146 0 -226 82q-78 84 -78 236zM326 1430q4 10 22 10h158q38 0 54 -34 q36 -64 106 -196q18 -34 -16 -34h-100q-30 0 -46 24q-56 68 -172 204q-12 18 -6 26z" />
<glyph unicode="&#xfa;" d="M188 318v692q0 34 34 34h130q34 0 34 -34v-684q0 -152 148 -152h98q168 0 168 174v662q0 34 34 34h130q36 0 36 -34v-976q0 -34 -36 -34h-130q-34 0 -34 34v74h-8q-50 -108 -208 -108h-92q-146 0 -226 82q-78 84 -78 236zM518 1210q34 66 106 196q16 34 50 34h162 q16 0 22 -10q6 -8 -6 -26l-174 -204q-18 -24 -48 -24h-94q-38 0 -18 34z" />
<glyph unicode="&#xfb;" d="M188 318v692q0 34 34 34h130q34 0 34 -34v-684q0 -152 148 -152h98q168 0 168 174v662q0 34 34 34h130q36 0 36 -34v-976q0 -34 -36 -34h-130q-34 0 -34 34v74h-8q-50 -108 -208 -108h-92q-146 0 -226 82q-78 84 -78 236zM372 1200q42 74 126 220q16 20 46 20h98 q30 0 46 -20q42 -74 126 -220q16 -24 -12 -24h-94q-22 0 -34 20q-26 54 -82 160q-20 -40 -82 -160q-8 -20 -32 -20h-92q-30 0 -14 24z" />
<glyph unicode="&#xfc;" d="M188 318v692q0 34 34 34h130q34 0 34 -34v-684q0 -152 148 -152h98q168 0 168 174v662q0 34 34 34h130q36 0 36 -34v-976q0 -34 -36 -34h-130q-34 0 -34 34v74h-8q-50 -108 -208 -108h-92q-146 0 -226 82q-78 84 -78 236zM314 1210v194q0 36 34 36h122q32 0 32 -34v-196 q0 -34 -32 -34h-122q-34 0 -34 34zM684 1210v194q0 36 32 36h122q34 0 34 -34v-196q0 -34 -34 -34h-122q-32 0 -32 34z" />
<glyph unicode="&#xfd;" d="M160 1022q0 22 28 22h138q32 0 40 -34q76 -268 224 -804h8q56 202 224 804q6 34 40 34h132q34 0 34 -26q0 -6 -2 -10q-94 -328 -280 -986q-48 -172 -134 -262q-86 -92 -246 -92h-108q-34 0 -34 36v104q0 36 34 36h48q124 0 172 50q48 48 82 162h-82q-32 0 -44 34 q-90 306 -272 920q-2 6 -2 12zM522 1210q36 66 108 196q16 34 50 34h160q18 0 24 -10q4 -8 -8 -26q-56 -68 -172 -204q-18 -24 -48 -24h-96q-36 0 -18 34z" />
<glyph unicode="&#xfe;" d="M182 -238v1642q0 36 36 36h130q34 0 34 -36v-468h10q46 108 204 108h92q150 0 234 -82q84 -84 84 -234v-410q0 -150 -84 -234t-234 -84h-92q-158 0 -204 108h-10v-346q0 -34 -34 -34h-130q-36 0 -36 34zM382 348q0 -174 168 -174h108q146 0 146 152v392q0 152 -146 152 h-108q-168 0 -168 -174v-348z" />
<glyph unicode="&#xff;" d="M160 1022q0 22 28 22h138q32 0 40 -34q76 -268 224 -804h8q56 202 224 804q6 34 40 34h132q34 0 34 -26q0 -6 -2 -10q-94 -328 -280 -986q-48 -172 -134 -262q-86 -92 -246 -92h-108q-34 0 -34 36v104q0 36 34 36h48q124 0 172 50q48 48 82 162h-82q-32 0 -44 34 q-90 306 -272 920q-2 6 -2 12zM318 1210v194q0 36 30 36h126q32 0 32 -34v-196q0 -34 -32 -34h-126q-30 0 -30 34zM684 1210v194q0 36 34 36h122q34 0 34 -34v-196q0 -34 -34 -34h-122q-34 0 -34 34z" />
<glyph unicode="&#x152;" d="M-70 318v682q0 150 84 234q84 82 236 82h972q36 0 36 -34v-104q0 -36 -36 -36h-456q-20 0 -20 -20v-346q0 -20 20 -20h388q34 0 34 -36v-104q0 -34 -34 -34h-388q-20 0 -20 -20v-366q0 -22 20 -22h456q36 0 36 -34v-106q0 -34 -36 -34h-972q-152 0 -236 84t-84 234z M134 326q0 -152 146 -152h242q24 0 24 22v926q0 20 -24 20h-242q-146 0 -146 -150v-666z" />
<glyph unicode="&#x153;" d="M-116 318v410q0 150 82 234q84 82 234 82h146q182 0 266 -126q66 126 252 126h122q148 0 234 -82q84 -84 84 -234v-262q0 -36 -36 -36h-548q-20 0 -20 -20v-84q0 -152 148 -152h414q32 0 32 -34v-108q0 -18 -6 -24q-6 -8 -26 -8h-410q-102 0 -164 32q-62 34 -102 104 q-50 -136 -230 -136h-156q-150 0 -234 84q-82 84 -82 234zM82 326q0 -152 148 -152h120q148 0 148 152v392q0 152 -148 152h-120q-148 0 -148 -152v-392zM700 590q0 -20 20 -20h362q22 0 22 20v128q0 152 -148 152h-108q-148 0 -148 -152v-128z" />
<glyph unicode="&#x178;" d="M106 1296q0 6 4 10q8 10 22 10h164q28 0 42 -34l252 -564h12q62 142 248 564q12 34 40 34h164q16 0 24 -10q4 -4 4 -10q0 -8 -4 -16l-384 -792v-454q0 -34 -34 -34h-132q-34 0 -34 34v454l-384 792q-4 8 -4 16zM316 1482v196q0 34 32 34h122q32 0 32 -32v-198 q0 -34 -32 -34h-122q-32 0 -32 34zM684 1482v196q0 34 30 34h126q30 0 30 -32v-198q0 -34 -30 -34h-126q-30 0 -30 34z" />
<glyph unicode="&#x2c6;" d="M368 1192q0 4 4 8q42 74 128 220q14 20 46 20h96q30 0 44 -20q44 -74 130 -220q4 -6 4 -10v-6q-4 -8 -16 -8h-96q-24 0 -32 20q-28 54 -84 160q-20 -40 -82 -160q-8 -20 -32 -20h-92q-12 0 -16 8q-2 4 -2 8z" />
<glyph unicode="&#x2dc;" d="M358 1336v78q0 22 20 22h62q18 0 18 -22v-40q0 -50 10 -70q10 -18 28 -18q20 0 32 14t42 62q28 50 54 66q28 16 68 16q138 0 138 -158v-78q0 -24 -18 -24h-64q-18 0 -18 24v38q0 52 -10 70t-34 18q-22 0 -42 -36q-6 -6 -28 -44q-40 -76 -120 -76q-138 0 -138 158z" />
<glyph unicode="&#x2000;" horiz-adv-x="894" />
<glyph unicode="&#x2001;" horiz-adv-x="1788" />
<glyph unicode="&#x2002;" horiz-adv-x="894" />
<glyph unicode="&#x2003;" horiz-adv-x="1788" />
<glyph unicode="&#x2004;" horiz-adv-x="596" />
<glyph unicode="&#x2005;" horiz-adv-x="447" />
<glyph unicode="&#x2006;" horiz-adv-x="298" />
<glyph unicode="&#x2007;" horiz-adv-x="298" />
<glyph unicode="&#x2008;" horiz-adv-x="223" />
<glyph unicode="&#x2009;" horiz-adv-x="357" />
<glyph unicode="&#x200a;" horiz-adv-x="99" />
<glyph unicode="&#x2010;" d="M356 608v90q0 38 36 38h404q36 0 36 -38v-90q0 -36 -36 -36h-404q-36 0 -36 36z" />
<glyph unicode="&#x2011;" d="M356 608v90q0 38 36 38h404q36 0 36 -38v-90q0 -36 -36 -36h-404q-36 0 -36 36z" />
<glyph unicode="&#x2012;" d="M356 608v90q0 38 36 38h404q36 0 36 -38v-90q0 -36 -36 -36h-404q-36 0 -36 36z" />
<glyph unicode="&#x2013;" d="M266 630v68q0 38 36 38h584q36 0 36 -38v-68q0 -34 -36 -34h-584q-36 0 -36 34z" />
<glyph unicode="&#x2014;" d="M64 630v68q0 38 36 38h988q36 0 36 -38v-68q0 -34 -36 -34h-988q-36 0 -36 34z" />
<glyph unicode="&#x2018;" d="M502 860v92q0 56 38 148q30 66 88 198q8 18 28 18q30 0 30 -32v-422q0 -34 -34 -34h-116q-34 0 -34 32z" />
<glyph unicode="&#x2019;" d="M502 860v422q0 34 34 34h116q34 0 34 -32v-92q0 -58 -38 -146q-30 -66 -88 -200q-10 -18 -30 -18q-28 0 -28 32z" />
<glyph unicode="&#x201a;" d="M502 -192v424q0 32 34 32h116q34 0 34 -32v-90q0 -54 -38 -148q-30 -68 -86 -200q-12 -18 -32 -18q-28 0 -28 32z" />
<glyph unicode="&#x201c;" d="M340 860v92q0 56 38 148q30 66 88 198q8 18 28 18q30 0 30 -32v-422q0 -34 -34 -34h-116q-34 0 -34 32zM662 860v92q0 60 40 148q28 66 86 198q12 18 30 18q28 0 28 -32v-422q0 -34 -32 -34h-116q-36 0 -36 32z" />
<glyph unicode="&#x201d;" d="M340 860v422q0 34 34 34h116q34 0 34 -32v-92q0 -58 -38 -146q-28 -66 -88 -200q-10 -18 -30 -18q-28 0 -28 32zM662 860v422q0 34 36 34h116q32 0 32 -32v-92q0 -52 -38 -146q-28 -66 -86 -200q-10 -18 -30 -18q-30 0 -30 32z" />
<glyph unicode="&#x201e;" d="M340 -192v422q0 34 36 34h114q36 0 36 -32v-92q0 -52 -40 -148q-28 -66 -86 -198q-8 -20 -30 -20q-30 0 -30 34zM664 -192v422q0 34 34 34h116q32 0 32 -32v-92q0 -56 -36 -148q-30 -66 -88 -198q-10 -20 -30 -20q-28 0 -28 34z" />
<glyph unicode="&#x2022;" d="M446 570v172q0 106 106 106h80t80 -28q30 -28 30 -78v-172q0 -108 -110 -108h-80q-106 0 -106 108z" />
<glyph unicode="&#x2026;" d="M78 36v248q0 34 36 34h138q34 0 34 -34v-250q0 -34 -34 -34h-138q-36 0 -36 36zM496 36v248q0 34 34 34h140q32 0 32 -34v-250q0 -34 -32 -34h-140q-34 0 -34 36zM902 36v248q0 34 34 34h140q32 0 32 -34v-250q0 -34 -32 -34h-140q-34 0 -34 36z" />
<glyph unicode="&#x202f;" horiz-adv-x="357" />
<glyph unicode="&#x2039;" d="M412 492v68q0 36 32 60q98 84 296 250q12 10 20 10q4 -2 6 -2q10 -6 10 -24v-100q0 -32 -30 -52q-70 -58 -208 -178q52 -44 208 -178q30 -20 30 -52v-100q0 -18 -10 -22q-2 -2 -6 -2q-8 0 -20 8q-98 84 -296 250q-32 24 -32 64z" />
<glyph unicode="&#x203a;" d="M412 194v100q0 30 28 52q70 60 210 178q-54 44 -210 178q-28 20 -28 52v100q0 18 8 24q4 0 6 2q8 0 20 -10q100 -82 298 -250q32 -24 32 -60v-68q0 -40 -32 -64q-100 -84 -298 -250q-12 -8 -20 -8q-2 0 -6 2q-8 4 -8 22z" />
<glyph unicode="&#x205f;" horiz-adv-x="447" />
<glyph unicode="&#x20ac;" d="M138 492v64q0 38 38 38h102v118h-102q-38 0 -38 40v62q0 38 38 38h102v152q0 150 86 230q84 82 234 82h134q148 0 234 -82q84 -80 84 -230v-48q0 -34 -34 -34h-132q-34 0 -34 34v44q0 146 -150 146h-72q-152 0 -152 -146v-148h238q40 0 40 -38v-62t-40 -40h-238v-118h238 q40 0 40 -38v-64q0 -40 -40 -40h-238v-134q0 -148 152 -148h72q150 0 150 148v42q0 36 34 36h132q34 0 34 -36v-46q0 -150 -84 -232q-86 -82 -234 -82h-134q-150 0 -234 82q-86 82 -86 232v138h-102q-38 0 -38 40z" />
<glyph unicode="&#x2122;" d="M98 1250v48q0 18 18 18h352q22 0 22 -18v-48q0 -22 -22 -22h-124v-392q0 -20 -18 -20h-60q-20 0 -20 20v392h-130q-18 0 -18 22zM578 836v462q0 18 20 18h102q14 0 20 -14q38 -82 112 -250h6q28 64 112 250q4 14 18 14h104q18 0 18 -18v-462q0 -20 -18 -20h-60 q-20 0 -20 20v350h-6q-24 -58 -98 -228q-10 -20 -20 -20h-66q-16 0 -22 20q-32 76 -98 228h-6v-350q0 -20 -18 -20h-62q-18 0 -18 20z" />
<glyph unicode="&#x25fc;" horiz-adv-x="1040" d="M0 0v1040h1040v-1040h-1040z" />
</font>
</defs>
</svg>
