<?xml version="1.0" standalone="no"?>
<!DOCTYPE svg PUBLIC "-//W3C//DTD SVG 1.1//EN" "http://www.w3.org/Graphics/SVG/1.1/DTD/svg11.dtd" >
<svg xmlns="http://www.w3.org/2000/svg" xmlns:xlink="http://www.w3.org/1999/xlink" version="1.1">
<metadata></metadata>
<defs>
<font id="rajdhani_modmedium" horiz-adv-x="1188" >
<font-face units-per-em="2048" ascent="1638" descent="-410" />
<missing-glyph horiz-adv-x="500" />
<glyph horiz-adv-x="0" />
<glyph horiz-adv-x="0" />
<glyph unicode="&#xd;" horiz-adv-x="0" />
<glyph unicode=" " />
<glyph unicode="!" d="M510 1050v238q0 28 30 28h108q28 0 28 -28v-238q0 -194 -12 -378t-16 -210q-4 -24 -26 -24h-56q-26 0 -28 30q-8 80 -18 282q-10 200 -10 300zM520 30v246q0 28 26 28h98q28 0 28 -28v-248q0 -28 -28 -28h-98q-26 0 -26 30z" />
<glyph unicode="&#x22;" d="M362 1288q0 28 26 28h90q30 0 26 -28q-10 -126 -32 -378q-2 -32 -30 -32h-16q-26 0 -30 34q-12 124 -34 376zM684 1288q0 28 26 28h90q26 0 26 -20v-8q-12 -126 -32 -378q-4 -32 -30 -32h-18q-26 0 -30 34q-10 124 -32 376z" />
<glyph unicode="#" d="M4 352v68q0 28 28 28h212q28 106 114 420h-200q-30 0 -30 30v66q0 30 30 30h234q20 72 78 292q6 30 32 30h66q38 0 24 -36q-26 -96 -76 -286h344q18 72 76 292q12 30 40 30h62q32 0 24 -36q-26 -96 -78 -286h172q28 0 28 -30v-66q0 -30 -28 -30h-204q-28 -104 -114 -420 h192q28 0 28 -28v-68q0 -28 -28 -28h-226q-20 -74 -78 -294q-8 -30 -34 -30h-70q-30 0 -20 36q26 96 76 288h-344q-18 -74 -76 -294q-10 -30 -38 -30h-66q-32 0 -20 36l78 288h-180q-28 0 -28 28zM370 448h342q28 106 112 420h-342q-28 -104 -112 -420z" />
<glyph unicode="$" horiz-adv-x="1186" d="M198 904v112q0 142 80 222q82 80 220 80h50v174q0 30 28 30h70q28 0 28 -30v-174h16q132 0 212 -82q80 -80 80 -220v-52q0 -30 -28 -30h-92q-30 0 -30 30v40q0 184 -182 184h-120q-182 0 -182 -192v-96q0 -94 52 -128q52 -36 160 -40q42 -2 128 -4q138 -8 220 -74 q82 -68 82 -232v-118q0 -142 -80 -224q-82 -80 -220 -80h-16v-172q0 -28 -28 -28h-70q-28 0 -28 28v172h-50q-136 0 -218 82q-80 82 -80 222v56q0 30 26 30h94q28 0 28 -30v-44q0 -184 182 -184h128q182 0 182 188v96q0 96 -52 134q-54 40 -162 44q-38 0 -112 2 q-148 6 -232 72t-84 236z" />
<glyph unicode="%" d="M-46 946v144q0 234 230 234h72q230 0 230 -234v-144q0 -234 -230 -234h-72q-230 0 -230 234zM68 950q0 -80 28 -112t104 -32h40q76 0 104 34q28 32 28 110v136q0 78 -28 110q-28 30 -104 30h-40q-76 0 -104 -30q-28 -32 -28 -110v-136zM270 32q30 76 266 628t264 626 q16 30 38 30h60q32 0 18 -34q-176 -418 -528 -1252q-14 -30 -40 -30h-60q-32 0 -18 32zM702 236v142q0 234 230 234h72q228 0 228 -234v-142q0 -236 -228 -236h-72q-230 0 -230 236zM816 240q0 -78 28 -110q28 -34 106 -34h40q74 0 104 34q28 32 28 110v132q0 80 -28 112 q-30 32 -104 32h-40q-78 0 -106 -32t-28 -112v-132z" />
<glyph unicode="&#x26;" horiz-adv-x="1186" d="M96 300v156t54 180q52 76 160 82q-92 110 -92 240v60q0 142 84 220t226 78h56q140 0 220 -78t80 -220v-86q0 -30 -26 -30h-92q-28 0 -28 30v84q0 174 -164 174h-34q-170 0 -170 -174v-60q0 -100 90 -200l120 -138h478q32 0 32 -28v-76q0 -26 -32 -26h-368 q100 -116 398 -466q4 -4 4 -10v-4q-2 -8 -12 -8h-120q-28 0 -46 20q-38 44 -112 130q-50 -150 -252 -150h-152q-142 0 -222 78q-80 80 -80 222zM240 306q0 -172 176 -172h134q138 0 158 122q-106 124 -322 374q-146 -8 -146 -182v-142z" />
<glyph unicode="'" d="M524 1260v2q0 24 26 24h86q28 0 28 -24v-2q-10 -108 -30 -322q-8 -26 -30 -26h-20q-26 0 -28 26q-12 108 -32 322z" />
<glyph unicode="(" d="M416 146v816q0 174 86 264t236 90h8q26 0 26 -22v-64q0 -26 -28 -26h-6q-94 0 -146 -60q-52 -58 -52 -170v-840q0 -112 52 -170q52 -60 148 -60h4q28 0 28 -26v-64q0 -22 -28 -22h-6q-150 0 -236 90t-86 264z" />
<glyph unicode=")" d="M416 -122q0 26 26 26h6q92 0 144 60q54 58 54 170v840q0 112 -54 170q-52 60 -144 60h-6q-26 0 -26 26v64q0 22 26 22h6q150 0 238 -90q86 -90 86 -264v-816q0 -174 -86 -264q-88 -90 -238 -90h-6q-26 0 -26 22v64z" />
<glyph unicode="*" d="M300 1068q0 6 4 14q6 20 20 58q6 26 34 18q150 -52 236 -136q0 2 -8 20q-8 16 -16 40q-6 22 -16 48q-20 60 -20 132v28q0 26 28 26h60q30 0 30 -26v-28q0 -138 -58 -240q116 102 208 132q10 2 30 8q26 8 34 -18q6 -18 18 -58q4 -8 4 -14q0 -16 -22 -22q-8 -2 -26 -8 q-132 -42 -246 -20q2 -2 26 -16q26 -14 50 -32q80 -56 130 -134q16 -20 -6 -38q-16 -12 -50 -36q-24 -12 -40 6q-4 8 -14 22q-84 112 -96 228q0 -10 -16 -64q-32 -104 -76 -166q-6 -8 -16 -24q-8 -12 -18 -12t-22 8l-48 36q-24 14 -6 40q4 6 16 20q70 98 186 162 q-160 -10 -246 16q-10 4 -28 8q-20 8 -20 22z" />
<glyph unicode="+" d="M190 624v66q0 30 30 30h310v310q0 32 30 32h70q30 0 30 -32v-310h308q30 0 30 -30v-66q0 -28 -30 -28h-308v-312q0 -32 -30 -32h-70q-30 0 -30 32v312h-310q-30 0 -30 28z" />
<glyph unicode="," d="M516 -186v462q0 28 26 28h104q26 0 26 -28v-162q0 -44 -30 -118q-28 -64 -82 -192q-10 -16 -24 -16q-20 0 -20 26z" />
<glyph unicode="-" d="M356 620v68q0 28 30 28h416q30 0 30 -28v-68q0 -28 -30 -28h-416q-30 0 -30 28z" />
<glyph unicode="." d="M516 28v248q0 28 26 28h104q26 0 26 -28v-248q0 -28 -26 -28h-104q-26 0 -26 28z" />
<glyph unicode="/" d="M290 18q0 6 2 14q34 82 232 636q200 554 224 618q14 30 40 30h86q26 0 24 -18q0 -6 -4 -16q-152 -418 -454 -1252q-10 -30 -40 -30h-84q-26 0 -26 18z" />
<glyph unicode="0" d="M190 304v710q0 142 82 222q80 80 220 80h204q140 0 220 -80q82 -80 82 -222v-710q0 -144 -82 -224q-80 -80 -220 -80h-204q-140 0 -220 80q-82 80 -82 224zM340 310q0 -178 170 -178h168q172 0 172 178v698q0 178 -172 178h-168q-170 0 -170 -178v-698z" />
<glyph unicode="1" d="M378 1034v82q0 30 26 46q78 44 238 136q32 18 52 18h86q28 0 28 -28v-1260q0 -28 -28 -28h-92q-28 0 -28 28v1130q-62 -36 -244 -140q-38 -20 -38 16z" />
<glyph unicode="2" d="M208 932v86q0 142 80 220t222 78h164q142 0 220 -78q80 -78 80 -220v-84q0 -160 -126 -260l-402 -318q-68 -52 -68 -128v-94h572q28 0 28 -30v-76q0 -28 -28 -28h-704q-28 0 -28 28v184t114 226l396 312q102 78 102 192v74q0 174 -176 174h-126q-172 0 -172 -174v-84 q0 -30 -28 -30h-92q-28 0 -28 30z" />
<glyph unicode="3" d="M202 300v80q0 32 28 32h92q30 0 30 -32v-78q0 -176 172 -176h140q174 0 174 176v124q0 174 -174 174h-118q-28 0 -28 28v68q0 28 28 28h118q174 0 174 176v116q0 174 -174 174h-140q-172 0 -172 -174v-66q0 -30 -30 -30h-92q-28 0 -28 30v68q0 142 80 220q82 78 222 78 h180q140 0 222 -78q80 -78 80 -220v-120q0 -184 -168 -236q168 -44 168 -234v-128q0 -142 -80 -222q-82 -78 -222 -78h-180q-140 0 -222 78q-80 80 -80 222z" />
<glyph unicode="4" d="M126 304v48q0 36 16 62q166 288 500 862q18 40 60 40h134q44 0 44 -42v-882h152q28 0 28 -28v-74q0 -30 -28 -30h-152v-232q0 -28 -28 -28h-86q-26 0 -26 28v232h-570q-44 0 -44 44zM276 392h464v804q-116 -202 -464 -804z" />
<glyph unicode="5" d="M208 304v62q0 32 28 32h92q30 0 30 -32v-60q0 -180 170 -180h132q174 0 174 180v226q0 96 -42 142q-44 46 -136 46h-152q-86 0 -112 -50t-54 -50h-94q-28 0 -28 30v638q0 28 28 28h678q32 0 32 -28v-82q0 -28 -32 -28h-556v-436q38 102 174 102h148q138 0 216 -76 q76 -76 76 -218v-246q0 -144 -80 -224t-222 -80h-168q-140 0 -222 80q-80 80 -80 224z" />
<glyph unicode="6" d="M194 304v710q0 142 82 222q80 80 222 80h396q30 0 30 -28v-76q0 -26 -30 -26h-378q-172 0 -172 -178v-210h348q142 0 222 -80t80 -222v-192q0 -144 -80 -224t-222 -80h-194q-142 0 -222 80q-82 82 -82 224zM344 310q0 -178 172 -178h158q172 0 172 178v180 q0 178 -172 178h-330v-358z" />
<glyph unicode="7" d="M228 1208v80q0 28 28 28h676q28 0 28 -28v-86q0 -32 -16 -66q-142 -370 -428 -1110q-10 -26 -48 -26h-96q-32 0 -16 34l444 1146h-544q-28 0 -28 28z" />
<glyph unicode="8" d="M184 292v126q0 184 144 246q-144 54 -144 246v114q0 142 80 218q80 74 222 74h216q142 0 222 -74q80 -76 80 -218v-114q0 -94 -40 -160q-38 -64 -104 -86q144 -60 144 -248v-124q0 -138 -80 -216q-80 -76 -222 -76h-216q-142 0 -222 76q-80 78 -80 216zM332 304 q0 -172 172 -172h180q172 0 172 172v122q0 176 -172 176h-180q-172 0 -172 -176v-122zM332 902q0 -180 172 -180h180q172 0 172 180v112q0 172 -172 172h-180q-172 0 -172 -172v-112z" />
<glyph unicode="9" d="M196 814v200q0 142 80 222q82 80 220 80h196q140 0 220 -80t80 -222v-710q0 -144 -80 -224t-220 -80h-404q-30 0 -30 28v76q0 28 30 28h384q172 0 172 178v202h-348q-138 0 -220 80q-80 80 -80 222zM346 820q0 -176 170 -176h328v364q0 178 -172 178h-156 q-170 0 -170 -178v-188z" />
<glyph unicode=":" d="M516 30v246q0 28 26 28h104q26 0 26 -28v-248q0 -28 -26 -28h-104q-26 0 -26 30zM516 772v244q0 28 26 28h104q26 0 26 -26v-248q0 -28 -26 -28h-104q-26 0 -26 30z" />
<glyph unicode=";" d="M516 -186v462q0 28 26 28h104q26 0 26 -28v-162q0 -44 -30 -118q-28 -64 -82 -192q-10 -16 -24 -16q-20 0 -20 26zM516 772v244q0 28 26 28h104q26 0 26 -26v-248q0 -28 -26 -28h-104q-26 0 -26 30z" />
<glyph unicode="&#x3c;" d="M188 626v72q0 38 36 50q246 88 740 268q10 2 16 4q20 0 20 -24v-74q0 -32 -28 -40q-218 -72 -656 -218q164 -56 656 -222q28 -4 28 -36v-76q0 -24 -20 -24q-6 0 -16 4q-246 88 -740 268q-36 14 -36 48z" />
<glyph unicode="=" d="M188 438v62q0 30 32 30h746q34 0 34 -30v-62q0 -30 -34 -30h-746q-32 0 -32 30zM188 816v62q0 32 32 32h746q34 0 34 -32v-62q0 -32 -34 -32h-746q-32 0 -32 32z" />
<glyph unicode="&#x3e;" d="M188 330v76q0 32 28 36q218 74 656 222q-164 54 -656 218q-28 8 -28 40v74q0 24 20 24q6 -2 16 -4q246 -90 740 -268q36 -12 36 -50v-72q0 -34 -36 -48q-246 -90 -740 -268q-10 -4 -16 -4q-20 0 -20 24z" />
<glyph unicode="?" horiz-adv-x="1186" d="M238 940v76q0 142 80 220t222 78h106q142 0 222 -78q82 -78 82 -220v-54q0 -106 -98 -186q-34 -30 -106 -90q-46 -40 -60 -70q-14 -28 -14 -80v-70q0 -28 -28 -28h-86q-28 0 -28 28v66q0 80 22 124q24 44 90 100q28 24 86 74q76 62 76 140v44q0 174 -176 174h-70 q-172 0 -172 -174v-74q0 -28 -28 -28h-92q-28 0 -28 28zM520 30v246q0 28 26 28h104q26 0 26 -28v-248q0 -28 -26 -28h-104q-26 0 -26 30z" />
<glyph unicode="@" d="M-26 388v336q0 228 148 370q148 140 352 140h406q150 0 242 -88q92 -90 92 -230v-472q0 -122 -76 -198t-198 -76h-80q-40 0 -66 22q-28 20 -28 58v30h-8q-50 -108 -212 -108q-126 0 -200 78q-76 78 -76 216v172q0 142 78 224q76 80 208 80h310q28 0 28 -28v-626 q0 -20 28 -20h10q182 0 182 186v454q0 110 -66 170t-176 60h-392q-174 0 -290 -114t-116 -306v-320q0 -192 120 -306q118 -114 294 -114h374q28 0 28 -28v-40t-28 -28h-372q-212 0 -364 136q-152 138 -152 370zM402 466q0 -178 172 -178h4q92 0 140 50t48 140v326 q0 22 -20 22h-172q-172 0 -172 -178v-182z" />
<glyph unicode="A" d="M96 18q0 4 2 10l384 1260q8 28 38 28h148q30 0 38 -28l384 -1260q2 -6 2 -10q0 -18 -20 -18h-106q-22 0 -28 28l-96 300h-496q-24 -76 -96 -300q-8 -28 -30 -28h-104q-20 0 -20 18zM378 454h430q-52 178 -210 710h-8q-52 -178 -212 -710z" />
<glyph unicode="B" d="M180 28v1260q0 28 28 28h482q142 0 222 -78t80 -220v-112q0 -184 -172 -236q78 -6 132 -68q56 -64 56 -166v-136q0 -142 -82 -222q-80 -78 -222 -78h-496q-28 0 -28 28zM330 148q0 -22 20 -22h336q176 0 176 176v132q0 174 -188 174h-324q-20 0 -20 -18v-442zM330 752 q0 -18 20 -18h316q180 0 180 174v108q0 174 -174 174h-322q-20 0 -20 -20v-418z" />
<glyph unicode="C" d="M168 304v710q0 144 80 222q82 80 224 80h244q142 0 224 -80q80 -78 80 -222v-100q0 -30 -28 -30h-92q-30 0 -30 30v94q0 178 -172 178h-210q-170 0 -170 -178v-698q0 -178 170 -178h210q172 0 172 178v94q0 28 30 28h92q28 0 28 -28v-100q0 -144 -80 -224 q-82 -80 -224 -80h-244q-142 0 -224 80q-80 80 -80 224z" />
<glyph unicode="D" d="M176 28v1260q0 28 28 28h504q142 0 222 -80q82 -80 82 -222v-710q0 -142 -82 -224q-80 -80 -222 -80h-504q-28 0 -28 28zM326 150q0 -18 20 -18h344q172 0 172 178v698q0 178 -172 178h-344q-20 0 -20 -18v-1018z" />
<glyph unicode="E" d="M244 28v1260q0 28 28 28h644q28 0 28 -28v-74q0 -28 -28 -28h-502q-20 0 -20 -18v-414q0 -18 20 -18h438q28 0 28 -30v-74q0 -28 -28 -28h-438q-20 0 -20 -18v-436q0 -18 20 -18h502q28 0 28 -30v-74q0 -28 -28 -28h-644q-28 0 -28 28z" />
<glyph unicode="F" d="M246 28v1260q0 28 30 28h636q30 0 30 -28v-74q0 -28 -30 -28h-496q-20 0 -20 -18v-448q0 -18 20 -18h440q28 0 28 -28v-74q0 -28 -28 -28h-440q-20 0 -20 -22v-522q0 -28 -28 -28h-92q-30 0 -30 28z" />
<glyph unicode="G" d="M182 304v710q0 144 80 222q82 80 222 80h222q140 0 220 -80t80 -222v-84q0 -30 -28 -30h-92q-28 0 -28 30v78q0 178 -170 178h-188q-170 0 -170 -178v-698q0 -178 170 -178h188q170 0 170 178v228q0 22 -20 22h-202q-28 0 -28 26v76q0 28 28 28h330q40 0 40 -42v-344 q0 -144 -80 -224t-220 -80h-222q-140 0 -222 80q-80 80 -80 224z" />
<glyph unicode="H" d="M170 28v1260q0 28 28 28h92q30 0 30 -28v-538q0 -18 20 -18h508q20 0 20 18v538q0 28 30 28h92q28 0 28 -28v-1260q0 -28 -28 -28h-92q-30 0 -30 28v554q0 18 -20 18h-508q-20 0 -20 -18v-554q0 -28 -30 -28h-92q-28 0 -28 28z" />
<glyph unicode="I" d="M520 28v1260q0 28 28 28h92q28 0 28 -28v-1260q0 -28 -28 -28h-92q-28 0 -28 28z" />
<glyph unicode="J" d="M190 304v176q0 28 28 28h92q28 0 28 -28v-170q0 -178 172 -178h168q172 0 172 178v978q0 28 30 28h92q26 0 26 -26v-986q0 -144 -80 -224q-82 -80 -220 -80h-206q-140 0 -222 80q-80 82 -80 224z" />
<glyph unicode="K" d="M144 28v1260q0 28 30 28h92q28 0 28 -28v-706h6q14 42 46 84q152 208 458 622q18 28 54 28h110q34 0 10 -30q-136 -182 -406 -548q116 -176 464 -706q8 -10 8 -18q0 -14 -28 -14h-82q-44 0 -60 28q-132 200 -394 600q-46 -56 -186 -222v-378q0 -28 -28 -28h-92 q-30 0 -30 28z" />
<glyph unicode="L" d="M236 28v1260q0 28 30 28h92q28 0 28 -28v-1134q0 -18 20 -18h516q30 0 30 -32v-76q0 -28 -30 -28h-656q-30 0 -30 28z" />
<glyph unicode="M" d="M34 28v1260q0 28 28 28h166q18 0 24 -16q112 -282 336 -848h12q84 212 334 848q6 16 26 16h166q28 0 28 -28v-1260q0 -28 -28 -28h-90q-30 0 -30 28v1088h-8q-78 -200 -318 -802q-12 -28 -36 -28h-98q-26 0 -36 28q-106 268 -322 804h-8v-1090q0 -28 -28 -28h-90 q-28 0 -28 28z" />
<glyph unicode="N" d="M160 28v1260q0 28 30 28h84q24 0 32 -16q188 -330 566 -992h8v980q0 28 28 28h90q30 0 30 -28v-1260q0 -28 -30 -28h-76q-22 0 -42 26l-564 984h-8v-982q0 -28 -28 -28h-90q-30 0 -30 28z" />
<glyph unicode="O" d="M168 304v710q0 144 82 222q80 80 222 80h244q142 0 222 -80t80 -222v-710q0 -142 -80 -224q-80 -80 -222 -80h-244q-142 0 -222 80q-82 80 -82 224zM318 310q0 -178 170 -178h210q172 0 172 178v698q0 178 -172 178h-210q-170 0 -170 -178v-698z" />
<glyph unicode="P" d="M190 28v1260q0 28 28 28h480q140 0 220 -80t80 -222v-228q0 -142 -80 -222t-220 -80h-338q-22 0 -22 -20v-436q0 -28 -28 -28h-92q-28 0 -28 28zM338 634q0 -18 22 -18h316q172 0 172 176v216q0 178 -172 178h-316q-22 0 -22 -18v-534z" />
<glyph unicode="Q" d="M170 304v710q0 142 80 222q82 80 222 80h242q142 0 222 -80q82 -78 82 -222v-710q0 -132 -70 -210q-70 -80 -192 -90q48 -82 146 -244q8 -14 2 -24q-6 -8 -22 -8h-84q-36 0 -52 28q-50 82 -148 244h-126q-140 0 -222 80q-80 80 -80 224zM320 310q0 -178 170 -178h208 q172 0 172 178v698q0 178 -172 178h-208q-170 0 -170 -178v-698z" />
<glyph unicode="R" d="M174 28v1260q0 28 28 28h472q142 0 224 -80t82 -222v-186q0 -116 -56 -190t-154 -100v-8q60 -124 238 -498q6 -10 6 -16q0 -16 -26 -16h-92q-36 0 -52 28q-76 166 -230 496h-270q-20 0 -20 -18v-478q0 -28 -28 -28h-94q-28 0 -28 28zM324 668q0 -18 20 -18h310 q176 0 176 176v182q0 178 -176 178h-310q-20 0 -20 -18v-500z" />
<glyph unicode="S" d="M174 304v64q0 30 28 30h92q28 0 28 -30v-52q0 -184 182 -184h182q182 0 182 188v70q0 146 -244 192q-102 18 -206 42q-102 26 -174 94q-70 72 -70 196v100q0 142 80 222t222 80h228q138 0 220 -80t82 -222v-52q0 -30 -26 -30h-94q-26 0 -26 30v38q0 186 -184 186h-174 q-182 0 -182 -194v-82q0 -106 138 -144q62 -16 134 -30q74 -14 148 -36q76 -20 138 -52t98 -98q38 -62 38 -154v-92q0 -142 -82 -224q-82 -80 -220 -80h-236q-140 0 -222 80q-80 82 -80 224z" />
<glyph unicode="T" d="M190 1214v74q0 28 30 28h748q30 0 30 -28v-74q0 -28 -30 -28h-278q-22 0 -22 -18v-1140q0 -28 -28 -28h-92q-28 0 -28 28v1140q0 18 -22 18h-278q-30 0 -30 28z" />
<glyph unicode="U" d="M178 304v984q0 28 28 28h94q28 0 28 -28v-978q0 -178 170 -178h192q172 0 172 178v978q0 28 26 28h92q30 0 30 -26v-986q0 -144 -80 -224t-222 -80h-226q-142 0 -222 80q-82 80 -82 224z" />
<glyph unicode="V" d="M124 1286v10q0 20 28 20h100q26 0 32 -28q102 -374 306 -1120h8q76 280 306 1120q6 28 32 28h102q26 0 26 -20q0 -4 -2 -10q-120 -420 -362 -1258q-8 -28 -32 -28h-146q-26 0 -34 28q-122 420 -364 1258z" />
<glyph unicode="W" d="M-168 1288q-2 6 0 10q0 18 26 18h112q30 0 32 -28q68 -376 206 -1128h14q68 282 276 1130q6 26 32 26h124q26 0 32 -26q94 -376 280 -1130h12q52 282 206 1126q6 30 34 30h112q26 0 26 -20v-10q-88 -420 -264 -1258q-6 -28 -34 -28h-156q-30 0 -36 28q-90 368 -268 1100 h-8q-68 -274 -270 -1100q-6 -28 -34 -28h-156q-30 0 -36 28q-88 420 -262 1260z" />
<glyph unicode="X" d="M128 18q0 6 4 12q120 220 358 658q-84 150 -340 598q-8 12 -2 22q6 8 22 8h102q32 0 44 -28l276 -504h8q66 126 270 504q16 28 44 28h108q14 0 18 -8q6 -10 0 -22q-114 -198 -342 -596q88 -164 356 -660q4 -6 4 -12q2 -4 -2 -8q-4 -10 -18 -10h-110q-28 0 -38 26 q-98 184 -292 550h-10q-72 -138 -290 -550q-14 -26 -40 -26h-108q-14 0 -18 10q-4 4 -4 8z" />
<glyph unicode="Y" d="M124 1298q0 6 4 10q6 8 18 8h116q22 0 34 -28q98 -206 292 -620h10q74 154 292 620q8 28 32 28h118q24 0 22 -14q0 -6 -4 -16q-130 -264 -392 -792v-466q0 -28 -28 -28h-92q-28 0 -28 28v466q-98 198 -390 792q-4 8 -4 12z" />
<glyph unicode="Z" d="M180 28v74q0 38 12 54q212 338 634 1014v8h-592q-28 0 -28 28v82q0 28 28 28h726q28 0 28 -28v-98q0 -32 -16 -58l-618 -984v-8h626q28 0 28 -28v-82q0 -30 -28 -30h-772q-28 0 -28 28z" />
<glyph unicode="[" d="M426 -176v1464q0 28 28 28h280q28 0 28 -28v-52q0 -28 -28 -28h-160q-22 0 -22 -20v-1264q0 -20 22 -20h160q28 0 28 -28v-54q0 -26 -28 -26h-280q-28 0 -28 28z" />
<glyph unicode="\" d="M290 1298q0 18 24 18h88q24 0 38 -30q30 -76 228 -628t228 -626q2 -8 2 -14q0 -18 -26 -18h-86q-24 0 -38 30q-152 418 -456 1252q-2 10 -2 16z" />
<glyph unicode="]" horiz-adv-x="1186" d="M428 -124q0 28 28 28h160q20 0 20 20v1264q0 20 -20 20h-160q-28 0 -28 28v52q0 28 28 28h278q26 0 26 -28v-1464q0 -28 -26 -28h-278q-28 0 -28 26v54z" />
<glyph unicode="^" d="M212 760q0 8 6 18q86 166 262 498q18 40 60 40h108q42 0 60 -40q88 -166 262 -498q6 -10 6 -18q2 -14 -26 -14h-82q-24 0 -40 28q-78 150 -234 448q-58 -112 -234 -448q-16 -28 -40 -28h-82q-28 0 -26 14z" />
<glyph unicode="_" d="M212 -146q0 30 30 30h704q28 0 28 -30v-36q0 -28 -28 -28h-704q-30 0 -30 28v36z" />
<glyph unicode="`" d="M438 1426q0 2 2 6q4 8 16 8h126q28 0 42 -26l120 -210q4 -10 6 -16q0 -12 -20 -12h-66q-26 0 -42 20q-60 72 -178 216q-6 6 -6 14z" />
<glyph unicode="a" d="M206 304v438q0 142 80 222q82 80 222 80h446q28 0 28 -28v-988q0 -28 -28 -28h-92q-30 0 -30 28v80h-8q-50 -108 -208 -108h-108q-140 0 -222 80q-80 80 -80 224zM356 310q0 -178 170 -178h116q92 0 142 48q48 50 48 140v574q0 20 -20 20h-286q-170 0 -170 -178v-426z " />
<glyph unicode="b" d="M202 28v1384q0 28 30 28h92q28 0 28 -28v-464h8q52 108 210 108h114q140 0 220 -80q82 -78 82 -220v-452q0 -144 -82 -224q-80 -80 -220 -80h-452q-30 0 -30 28zM352 150q0 -18 20 -18h292q174 0 174 178v438q0 178 -174 178h-122q-92 0 -140 -50q-50 -48 -50 -136v-590z " />
<glyph unicode="c" d="M280 304v438q0 142 80 222q82 80 222 80h298q28 0 28 -28v-76q0 -26 -28 -26h-280q-170 0 -170 -178v-426q0 -178 170 -178h280q28 0 28 -30v-76q0 -26 -28 -26h-298q-140 0 -222 80q-80 80 -80 224z" />
<glyph unicode="d" d="M202 304v438q0 142 78 222t218 80h120q160 0 212 -108h8v476q0 28 26 28h94q28 0 28 -28v-1384q0 -28 -28 -28h-94q-26 0 -26 28v80h-8q-52 -108 -212 -108h-120q-140 0 -218 80t-78 224zM352 310q0 -178 170 -178h126q92 0 140 48q50 50 50 140v404q0 92 -50 140 q-48 50 -140 50h-126q-170 0 -170 -178v-426z" />
<glyph unicode="e" d="M206 304v438q0 142 80 222q82 80 222 80h172q142 0 222 -80t80 -222v-260q0 -32 -28 -32h-580q-20 0 -20 -18v-124q0 -178 172 -178h418q28 0 28 -30v-74q0 -26 -28 -26h-436q-140 0 -222 80q-80 80 -80 224zM354 580q0 -20 20 -20h442q20 0 20 20v158q0 176 -172 176 h-138q-172 0 -172 -176v-158z" />
<glyph unicode="f" d="M320 942v76q0 26 28 26h120q22 0 22 18v76q0 146 72 224q70 78 208 78h70q28 0 28 -26v-76q0 -30 -28 -30h-52q-84 0 -116 -42q-34 -42 -34 -134v-70q0 -18 20 -18h180q30 0 30 -26v-76q0 -28 -30 -28h-180q-20 0 -20 -20v-866q0 -28 -30 -28h-90q-28 0 -28 28v866 q0 20 -22 20h-120q-28 0 -28 28z" />
<glyph unicode="g" horiz-adv-x="1186" d="M206 358v384q0 142 80 222q82 80 222 80h446q28 0 28 -28v-1016q0 -142 -80 -222q-82 -82 -224 -82h-376q-30 0 -30 30v76q0 28 30 28h358q172 0 172 176v158h-8q-52 -108 -208 -108h-116q-138 0 -216 80t-78 222zM356 364q0 -178 172 -178h114q92 0 142 50q48 48 48 138 v520q0 20 -20 20h-284q-172 0 -172 -178v-372z" />
<glyph unicode="h" d="M206 28v1384q0 28 28 28h92q30 0 30 -28v-476h8q50 108 208 108h116q138 0 216 -80t78 -222v-714q0 -28 -28 -28h-92q-30 0 -30 28v708q0 178 -172 178h-114q-92 0 -142 -50q-48 -48 -48 -140v-696q0 -28 -30 -28h-92q-28 0 -28 28z" />
<glyph unicode="i" d="M520 28v988q0 28 26 28h94q28 0 28 -28v-988q0 -28 -28 -28h-92q-28 0 -28 28zM520 1216v194q0 28 26 28h94q28 0 28 -28v-194q0 -28 -28 -28h-94q-26 0 -26 28z" />
<glyph unicode="j" d="M386 -198q0 28 28 28h48q190 0 190 192v994q0 28 28 28h94q28 0 28 -28v-1014q0 -142 -82 -224q-80 -82 -222 -82h-84q-28 0 -28 30v76zM652 1216v194q0 28 26 28h96q28 0 28 -28v-194q0 -28 -28 -28h-96q-26 0 -26 28z" />
<glyph unicode="k" d="M220 28v1384q0 28 30 28h92q28 0 28 -28v-1384q0 -28 -28 -28h-92q-30 0 -30 28zM472 516q-12 20 0 44q98 152 292 458q12 26 48 26h104q16 0 20 -8q6 -10 -4 -24q-100 -156 -302 -468v-8q84 -126 332 -504q4 -6 4 -14q2 -4 -2 -8q-6 -10 -22 -10h-96q-40 0 -58 28 q-104 164 -316 488z" />
<glyph unicode="l" d="M520 28v1384q0 28 28 28h92q28 0 28 -28v-1384q0 -28 -28 -28h-92q-28 0 -28 28z" />
<glyph unicode="m" d="M-66 28v988q0 28 30 28h92q28 0 28 -28v-80h8q58 108 218 108h76q180 0 248 -138q34 66 104 102t148 36h72q140 0 218 -80t78 -222v-714q0 -28 -30 -28h-92q-28 0 -28 28v708q0 178 -172 178h-68q-92 0 -142 -52q-50 -54 -50 -144v-690q0 -28 -28 -28h-94q-28 0 -28 28 v708q0 178 -172 178h-76q-92 0 -140 -50q-50 -48 -50 -140v-696q0 -28 -28 -28h-92q-30 0 -30 28z" />
<glyph unicode="n" d="M206 28v988q0 28 28 28h92q30 0 30 -28v-80h8q50 108 208 108h116q138 0 216 -80t78 -222v-714q0 -28 -28 -28h-92q-30 0 -30 28v708q0 178 -172 178h-114q-92 0 -142 -50q-48 -48 -48 -140v-696q0 -28 -30 -28h-92q-28 0 -28 28z" />
<glyph unicode="o" d="M202 304v438q0 142 82 222q80 80 222 80h176q142 0 222 -80q82 -80 82 -222v-438q0 -144 -82 -224q-80 -80 -222 -80h-176q-142 0 -222 80q-82 80 -82 224zM350 308q0 -176 172 -176h144q172 0 172 176v430q0 176 -172 176h-144q-172 0 -172 -176v-430z" />
<glyph unicode="p" d="M202 -270v1286q0 28 30 28h92q28 0 28 -28v-80h8q52 108 210 108h122q140 0 216 -80q78 -80 78 -222v-438q0 -144 -78 -224q-76 -80 -216 -80h-122q-158 0 -210 108h-8v-378q0 -30 -28 -30h-92q-30 0 -30 30zM352 320q0 -90 50 -140q48 -48 140 -48h122q174 0 174 178 v426q0 178 -174 178h-122q-92 0 -140 -50q-50 -48 -50 -140v-404z" />
<glyph unicode="q" d="M206 304v438q0 142 80 222q82 80 222 80h446q28 0 28 -28v-1286q0 -30 -28 -30h-92q-30 0 -30 30v380h-8q-60 -110 -214 -110h-102q-140 0 -222 80q-80 80 -80 224zM356 310q0 -178 170 -178h112q94 0 144 52t50 142v568q0 20 -20 20h-286q-170 0 -170 -178v-426z" />
<glyph unicode="r" d="M356 28v988q0 28 28 28h92q28 0 28 -28v-82h10q20 44 76 78q58 32 136 32h80q26 0 26 -28v-76q0 -14 -6 -22q-6 -6 -20 -4h-110q-92 0 -142 -56t-50 -152v-678q0 -28 -28 -28h-92q-28 0 -28 28z" />
<glyph unicode="s" d="M246 792q0 252 278 252h336q28 0 28 -28v-72q0 -26 -28 -26h-310q-74 0 -112 -32q-38 -30 -38 -70v-36q0 -86 118 -130q80 -36 240 -110q108 -40 146 -108t38 -186q0 -246 -294 -246h-364q-30 0 -30 28v72q0 26 30 26h344q160 0 160 120v38q0 110 -104 150 q-82 34 -242 102q-106 44 -150 102q-46 58 -46 154z" />
<glyph unicode="t" horiz-adv-x="1186" d="M294 940v76q0 28 28 28h114q20 0 20 18v178q0 28 28 28h92q28 0 28 -28v-178q0 -18 22 -18h216q32 0 32 -28v-76q0 -26 -32 -26h-216q-22 0 -22 -20v-588q0 -174 180 -174h80q30 0 30 -30v-76q0 -26 -30 -26h-100q-140 0 -224 78q-84 80 -84 222v594q0 20 -20 20h-114 q-28 0 -28 26z" />
<glyph unicode="u" d="M206 304v712q0 28 28 28h92q30 0 30 -28v-706q0 -178 170 -178h116q92 0 142 48q48 50 48 140v696q0 28 30 28h92q28 0 28 -28v-988q0 -28 -28 -28h-92q-30 0 -30 28v80h-8q-50 -108 -208 -108h-116q-138 0 -216 80t-78 224z" />
<glyph unicode="v" d="M192 1028q0 16 22 16h96q26 0 34 -28q80 -288 244 -866h12q60 216 242 866q8 28 36 28h96q22 0 22 -16q0 -6 -2 -12q-98 -328 -294 -986q-6 -30 -38 -30h-138q-30 0 -38 30q-98 330 -292 986q-2 6 -2 12z" />
<glyph unicode="w" d="M-66 1016v10q0 18 20 18h106q26 0 32 -28q66 -278 198 -836h14q52 210 210 836q6 28 32 28h96q28 0 36 -28q68 -278 204 -836h12q52 210 202 836q6 28 32 28h104q22 0 22 -18v-10q-88 -330 -262 -988q-6 -28 -36 -28h-126q-28 0 -34 28l-198 816h-10q-50 -204 -196 -816 q-6 -28 -36 -28h-124q-30 0 -36 28q-86 330 -262 988z" />
<glyph unicode="x" d="M200 12q0 8 6 16q96 168 286 504q-68 122 -276 484q-16 28 14 28h116q26 0 42 -28q68 -130 202 -388h8q48 98 190 388q14 28 42 28h114q34 0 14 -28q-90 -160 -268 -482q72 -126 290 -506q8 -10 8 -16q0 -12 -22 -12h-118q-24 0 -40 28q-70 136 -210 404h-8 q-54 -100 -212 -404q-12 -28 -40 -28h-116q-22 0 -22 12z" />
<glyph unicode="y" d="M170 1028q2 16 24 16h98q26 0 34 -28q88 -282 264 -844h8q66 210 264 844q8 28 34 28h94q26 0 26 -18q0 -6 -2 -12q-102 -324 -304 -974q-52 -174 -130 -268q-80 -94 -236 -94h-90q-28 0 -28 30v74q0 30 28 30h52q132 0 184 74q44 58 78 170h-60q-24 0 -34 28 q-100 310 -302 932q-2 6 -2 12z" />
<glyph unicode="z" d="M234 28v40q0 36 20 64q168 258 506 774v8h-482q-28 0 -28 30v72q0 28 28 28h630q30 0 30 -28v-68q0 -36 -18 -56q-164 -250 -490 -752v-8h496q28 0 28 -32v-72q0 -28 -28 -28h-662q-30 0 -30 28z" />
<glyph unicode="{" d="M376 516v74q0 28 28 28q116 0 116 144v252q0 302 254 302h10q28 0 28 -28v-56q0 -28 -28 -28h-6q-76 0 -106 -42q-28 -44 -28 -136v-274q0 -160 -116 -200q116 -32 116 -196v-274q0 -92 28 -136q30 -42 106 -42h6q28 0 28 -28v-56q0 -28 -28 -28h-10q-254 0 -254 302v252 q0 142 -116 142q-28 0 -28 28z" />
<glyph unicode="|" d="M538 28v1260q0 28 28 28h54q30 0 30 -28v-1260q0 -28 -30 -28h-54q-28 0 -28 28z" />
<glyph unicode="}" d="M376 -124q0 28 28 28h6q74 0 104 42q30 44 30 136v274q0 164 116 196q-116 40 -116 200v274q0 92 -30 136q-30 42 -104 42h-6q-28 0 -28 28v56q0 28 28 28h10q254 0 254 -302v-252q0 -144 116 -144q28 0 28 -28v-74q0 -28 -28 -28q-116 0 -116 -142v-252 q0 -302 -254 -302h-10q-28 0 -28 28v56z" />
<glyph unicode="~" d="M190 608v62q0 30 42 50q76 32 154 32q76 0 208 -34q134 -30 194 -30t122 24q62 28 68 28q20 0 20 -26v-62q0 -32 -42 -50q-76 -30 -154 -30t-216 30q-134 30 -190 30t-116 -24q-62 -24 -68 -24q-22 0 -22 24z" />
<glyph unicode="&#xa0;" />
<glyph unicode="&#xa1;" d="M510 28v238q0 194 14 380q12 184 14 202q2 30 28 30h56q22 0 26 -24t10 -116q18 -278 18 -472v-238q0 -28 -28 -28h-108q-30 0 -30 28zM520 1040v246q0 30 26 30h98q28 0 28 -28v-248q0 -26 -28 -26h-98q-26 0 -26 26z" />
<glyph unicode="&#xa2;" d="M264 304v438q0 138 76 220q78 82 214 82h54v178q0 30 26 30h74q26 0 26 -28v-180h146q44 0 44 -28v-76q0 -26 -30 -26h-312q-170 0 -170 -178v-426q0 -178 170 -178h312q30 0 30 -28v-76q0 -28 -30 -28h-160v-160q0 -26 -26 -26h-74q-26 0 -26 28v158h-54q-136 0 -214 82 q-76 82 -76 222z" />
<glyph unicode="&#xa3;" d="M148 28v68q0 28 28 28h20q40 0 68 40t28 100v280h-116q-28 0 -28 32v68q0 26 28 26h116v348q0 142 82 220q80 78 222 78h134q140 0 220 -78t80 -220v-56q0 -28 -28 -28h-92q-30 0 -30 28v54q0 174 -172 174h-94q-176 0 -176 -174v-346h302q28 0 28 -26v-68q0 -32 -28 -32 h-302v-262q0 -72 -22 -110t-50 -38v-10h648q26 0 26 -28v-68q0 -28 -26 -28h-838q-28 0 -28 28z" />
<glyph unicode="&#xa5;" d="M124 1302q0 14 20 14h120q20 0 32 -28q98 -210 292 -632h8l296 632q12 28 32 28h120q20 0 20 -12q0 -6 -4 -16q-90 -182 -268 -544h214q30 0 30 -32v-48q0 -30 -30 -30h-268l-66 -132v-56h334q30 0 30 -30v-48q0 -30 -30 -30h-338v-310q0 -28 -28 -28h-92q-30 0 -30 28 v310h-338q-30 0 -30 30v48q0 30 30 30h334v56q-16 34 -62 132h-272q-30 0 -30 30v48t30 32h218q-68 136 -270 544q-4 8 -4 14z" />
<glyph unicode="&#xa6;" d="M536 28v494q0 28 28 28h60q28 0 28 -28v-494q0 -28 -28 -28h-60q-28 0 -28 28zM536 794v494q0 28 28 28h60q28 0 28 -28v-494q0 -28 -28 -28h-60q-28 0 -28 28z" />
<glyph unicode="&#xa7;" horiz-adv-x="1186" d="M242 700v354q0 120 68 192q68 70 216 70h334q28 0 28 -28v-76q0 -26 -28 -26h-330q-138 0 -138 -138q0 -58 30 -90t114 -48q68 -14 206 -40q204 -40 204 -244v-350q0 -276 -298 -276h-358q-28 0 -28 28v76q0 28 28 28h348q94 0 126 38t32 102q0 66 -34 94q-34 30 -112 46 q-70 12 -206 38q-202 42 -202 250zM380 708q0 -118 132 -146q54 -12 164 -32q86 -16 130 -48v136q0 62 -32 94t-100 46q-54 10 -164 30q-82 20 -130 56v-136z" />
<glyph unicode="&#xa8;" d="M348 1204v208q0 28 26 28h86q30 0 30 -26v-210q0 -28 -30 -28h-86q-26 0 -26 28zM696 1204v208q0 28 28 28h88q28 0 28 -26v-210q0 -28 -28 -28h-88q-28 0 -28 28z" />
<glyph unicode="&#xa9;" d="M2 268v780q0 124 72 196t194 72h650q122 0 196 -70q72 -72 72 -198v-780q0 -124 -72 -196q-74 -72 -196 -72h-650q-122 0 -194 72t-72 196zM108 282q0 -184 182 -184h604q184 0 184 184v752q0 184 -184 184h-604q-182 0 -182 -184v-752zM316 486v338q0 228 242 228h68 q242 0 242 -228v-46q0 -22 -20 -22h-66q-20 0 -20 22v34q0 88 -32 116q-34 30 -124 30h-28q-90 0 -124 -30q-32 -28 -32 -116v-312q0 -88 32 -118q34 -30 124 -30h28q90 0 124 30q32 30 32 118v38q0 24 20 24h66q20 0 20 -24v-52q0 -230 -242 -230h-68q-242 0 -242 230z" />
<glyph unicode="&#xab;" d="M266 498v52q0 30 28 54q96 88 288 262q14 12 22 8q8 -6 8 -22v-68q0 -22 -22 -40q-78 -74 -236 -220q60 -54 236 -218q22 -20 22 -42v-68q0 -18 -8 -22q-8 -6 -22 6q-96 88 -288 262q-28 22 -28 56zM574 498v52q0 30 28 54q96 88 286 262q12 10 18 8h6q10 -6 10 -22v-68 q0 -24 -24 -40q-80 -74 -236 -220q58 -54 236 -218q24 -18 24 -42v-68q0 -18 -10 -22q-2 -2 -6 -2q-6 0 -18 8q-94 88 -286 262q-28 24 -28 56z" />
<glyph unicode="&#xad;" d="M356 620v68q0 28 30 28h416q30 0 30 -28v-68q0 -28 -30 -28h-416q-30 0 -30 28z" />
<glyph unicode="&#xae;" d="M270 1008v244q0 96 56 152q58 56 152 56h232q96 0 152 -56t56 -152v-244q0 -96 -56 -152t-152 -56h-232q-96 0 -152 58q-56 56 -56 150zM344 1020q0 -152 146 -152h210q144 0 144 152v222t-144 148h-210q-146 0 -146 -148v-222zM478 968v326q0 26 26 26h126q96 0 96 -92 v-58q0 -66 -50 -84q18 -38 54 -112q14 -32 -16 -32h-20q-20 0 -28 18q-18 40 -54 122h-66v-114q0 -26 -26 -26h-16q-26 0 -26 26zM546 1136h80q32 0 32 36v56q0 32 -32 32h-80v-124z" />
<glyph unicode="&#xaf;" d="M360 1284v50q0 28 28 28h412q28 0 28 -28v-50q0 -28 -28 -28h-412q-28 0 -28 28z" />
<glyph unicode="&#xb0;" d="M444 1146v200q0 96 100 96h98q48 0 74 -26q28 -26 28 -70v-200q0 -46 -28 -72q-26 -28 -74 -28h-98q-100 0 -100 100zM522 1176q0 -36 10 -48q12 -12 48 -12h28q34 0 46 12t12 48v132q0 38 -12 48q-12 12 -46 12h-28q-36 0 -48 -12q-10 -10 -10 -48v-132z" />
<glyph unicode="&#xb1;" d="M190 282v64q0 28 30 28h748q30 0 30 -28v-64q0 -30 -30 -30h-748q-30 0 -30 30zM190 740v60q0 32 30 32h310v198q0 32 30 32h70q30 0 30 -32v-198h308q30 0 30 -32v-60q0 -32 -30 -32h-308v-200q0 -30 -30 -30h-70q-30 0 -30 30v200h-310q-30 0 -30 32z" />
<glyph unicode="&#xb4;" d="M438 1190q0 6 4 14l120 210q14 26 44 26h124q14 0 18 -8q2 -4 2 -6q-2 -8 -6 -14l-180 -216q-16 -20 -42 -20h-66q-18 0 -18 14z" />
<glyph unicode="&#xb6;" d="M194 904v168q0 244 274 244h494q32 0 32 -26v-1262q0 -28 -30 -28h-70q-28 0 -28 28v1152q0 18 -20 18h-252q-22 0 -22 -18v-1152q0 -28 -28 -28h-70q-28 0 -28 28v630q-116 0 -184 60t-68 186z" />
<glyph unicode="&#xb7;" d="M516 528v246q0 28 26 28h104q26 0 26 -26v-248q0 -28 -26 -28h-104q-26 0 -26 28z" />
<glyph unicode="&#xb8;" d="M456 -126q0 20 18 40q36 42 112 126h110l-120 -128v-8q156 0 156 -132v-28q0 -130 -174 -130h-64q-28 0 -28 28v28q0 26 28 26h48q58 0 80 14q24 14 24 46v4q0 38 -22 50q-22 14 -82 14h-32q-36 0 -50 30q-4 10 -4 20z" />
<glyph unicode="&#xbb;" d="M266 196v68q0 22 22 42q80 72 236 218q-58 56 -236 220q-22 18 -22 40v68q0 16 8 22q8 4 22 -8q96 -88 288 -262q28 -24 28 -54v-52q0 -34 -28 -56q-96 -88 -288 -262q-8 -8 -16 -8q-4 0 -6 2q-8 4 -8 22zM574 196v68q0 24 24 42q78 72 236 218q-60 56 -236 220 q-24 16 -24 40v68q0 16 8 22q4 2 6 0q8 0 16 -8q96 -88 288 -262q30 -24 30 -54v-52q0 -32 -30 -56q-96 -88 -288 -262q-12 -12 -22 -6q-8 6 -8 22z" />
<glyph unicode="&#xbf;" horiz-adv-x="1186" d="M238 300v52q0 104 94 186q36 30 110 90q46 42 60 72t14 78v70q0 28 26 28h88q28 0 28 -28v-66q0 -78 -24 -122q-22 -46 -88 -100q-28 -26 -86 -74q-76 -62 -76 -142v-42q0 -176 174 -176h70q172 0 172 176v72q0 30 28 30h92q30 0 30 -30v-74q0 -142 -82 -222 q-80 -78 -222 -78h-106q-142 0 -222 78q-80 80 -80 222zM510 1038v248q0 28 28 28h104q26 0 26 -30v-246q0 -26 -26 -26h-104q-28 0 -28 26z" />
<glyph unicode="&#xc0;" d="M96 18q0 4 2 10l384 1260q8 28 38 28h148q30 0 38 -28l384 -1260q2 -6 2 -10q0 -18 -20 -18h-106q-22 0 -28 28l-96 300h-496q-24 -76 -96 -300q-8 -28 -30 -28h-104q-20 0 -20 18zM330 1704q4 8 18 8h124q30 0 42 -26q40 -70 118 -210q18 -28 -12 -28h-68q-24 0 -40 20 q-60 72 -178 216q-8 12 -4 20zM378 454h430q-52 178 -210 710h-8q-52 -178 -212 -710z" />
<glyph unicode="&#xc1;" d="M96 18q0 4 2 10l384 1260q8 28 38 28h148q30 0 38 -28l384 -1260q2 -6 2 -10q0 -18 -20 -18h-106q-22 0 -28 28l-96 300h-496q-24 -76 -96 -300q-8 -28 -30 -28h-104q-20 0 -20 18zM378 454h430q-52 178 -210 710h-8q-52 -178 -212 -710zM550 1476l120 210q12 26 42 26 h124q14 0 18 -8t-4 -20q-60 -72 -178 -216q-20 -20 -42 -20h-66q-30 0 -14 28z" />
<glyph unicode="&#xc2;" d="M96 18q0 4 2 10l384 1260q8 28 38 28h148q30 0 38 -28l384 -1260q2 -6 2 -10q0 -18 -20 -18h-106q-22 0 -28 28l-96 300h-496q-24 -76 -96 -300q-8 -28 -30 -28h-104q-20 0 -20 18zM378 454h430q-52 178 -210 710h-8q-52 -178 -212 -710zM388 1472q42 74 128 220 q14 20 44 20h68q28 0 42 -20q44 -74 130 -220q16 -24 -12 -24h-70q-20 0 -28 16l-96 180q-24 -44 -98 -180q-6 -16 -28 -16h-68q-28 0 -12 24z" />
<glyph unicode="&#xc3;" d="M96 18q0 4 2 10l384 1260q8 28 38 28h148q30 0 38 -28l384 -1260q2 -6 2 -10q0 -18 -20 -18h-106q-22 0 -28 28l-96 300h-496q-24 -76 -96 -300q-8 -28 -30 -28h-104q-20 0 -20 18zM368 1596v80q0 20 20 20h42q18 0 18 -20v-54q0 -60 10 -80t36 -20t40 16q12 16 38 72 q26 58 50 76q26 18 82 18q118 0 118 -160v-80q0 -22 -20 -22h-44q-18 0 -18 22v56q0 60 -10 78q-12 20 -38 20t-36 -12t-22 -38q-42 -92 -68 -110q-26 -20 -82 -20q-116 0 -116 158zM378 454h430q-52 178 -210 710h-8q-52 -178 -212 -710z" />
<glyph unicode="&#xc4;" d="M96 18q0 4 2 10l384 1260q8 28 38 28h148q30 0 38 -28l384 -1260q2 -6 2 -10q0 -18 -20 -18h-106q-22 0 -28 28l-96 300h-496q-24 -76 -96 -300q-8 -28 -30 -28h-104q-20 0 -20 18zM348 1476v208q0 28 26 28h88q26 0 26 -26v-210q0 -28 -26 -28h-88q-26 0 -26 28z M378 454h430q-52 178 -210 710h-8q-52 -178 -212 -710zM698 1476v208q0 28 26 28h90q24 0 24 -26v-210q0 -28 -24 -28h-90q-26 0 -26 28z" />
<glyph unicode="&#xc5;" d="M96 18q0 4 2 10l384 1260q8 28 38 28h148q30 0 38 -28l384 -1260q2 -6 2 -10q0 -18 -20 -18h-106q-22 0 -28 28l-96 300h-496q-24 -76 -96 -300q-8 -28 -30 -28h-104q-20 0 -20 18zM378 454h430q-52 178 -210 710h-8q-52 -178 -212 -710zM424 1566v84q0 136 136 136h62 q66 0 102 -36t36 -100v-84q0 -64 -36 -102q-36 -36 -102 -36h-62q-136 0 -136 138zM496 1584q0 -88 82 -88h24q82 0 82 88v46q0 88 -80 88h-26q-82 0 -82 -88v-46z" />
<glyph unicode="&#xc6;" d="M-138 14q0 6 6 16q218 420 654 1258q18 28 48 28h730q26 0 26 -28v-74q0 -28 -26 -28h-502q-24 0 -24 -18v-414q0 -18 24 -18h436q30 0 30 -30v-74q0 -28 -30 -28h-436q-24 0 -24 -18v-436q0 -18 24 -18h502q26 0 26 -30v-74q0 -28 -26 -28h-646q-26 0 -26 28v302h-444 q-38 -76 -158 -302q-14 -28 -38 -28h-104q-22 0 -22 14zM246 462h382v706h-8q-94 -176 -374 -706z" />
<glyph unicode="&#xc7;" d="M168 304v710q0 144 80 222q82 80 224 80h244q142 0 224 -80q80 -78 80 -222v-100q0 -30 -28 -30h-92q-30 0 -30 30v94q0 178 -172 178h-210q-170 0 -170 -178v-698q0 -178 170 -178h210q172 0 172 178v94q0 28 30 28h92q28 0 28 -28v-100q0 -144 -80 -224 q-82 -80 -224 -80h-28q-22 -24 -90 -94v-8q158 0 158 -134v-26q0 -132 -176 -132h-64q-26 0 -26 28v28q0 26 26 26h50q58 0 82 14q22 14 22 46v6q0 38 -22 50t-82 12h-34q-36 0 -48 30q-10 32 14 60q26 32 82 94h-108q-142 0 -224 80q-80 80 -80 224z" />
<glyph unicode="&#xc8;" d="M244 28v1260q0 28 28 28h644q28 0 28 -28v-74q0 -28 -28 -28h-502q-20 0 -20 -18v-414q0 -18 20 -18h438q28 0 28 -30v-74q0 -28 -28 -28h-438q-20 0 -20 -18v-436q0 -18 20 -18h502q28 0 28 -30v-74q0 -28 -28 -28h-644q-28 0 -28 28zM350 1704q4 8 18 8h124 q30 0 42 -26l120 -210q16 -28 -12 -28h-68q-26 0 -42 20q-58 72 -178 216q-8 12 -4 20z" />
<glyph unicode="&#xc9;" d="M244 28v1260q0 28 28 28h644q28 0 28 -28v-74q0 -28 -28 -28h-502q-20 0 -20 -18v-414q0 -18 20 -18h438q28 0 28 -30v-74q0 -28 -28 -28h-438q-20 0 -20 -18v-436q0 -18 20 -18h502q28 0 28 -30v-74q0 -28 -28 -28h-644q-28 0 -28 28zM528 1476q40 70 118 210 q14 26 44 26h124q14 0 18 -8t-4 -20l-180 -216q-18 -20 -40 -20h-68q-28 0 -12 28z" />
<glyph unicode="&#xca;" d="M244 28v1260q0 28 28 28h644q28 0 28 -28v-74q0 -28 -28 -28h-502q-20 0 -20 -18v-414q0 -18 20 -18h438q28 0 28 -30v-74q0 -28 -28 -28h-438q-20 0 -20 -18v-436q0 -18 20 -18h502q28 0 28 -30v-74q0 -28 -28 -28h-644q-28 0 -28 28zM386 1472q42 74 130 220 q14 20 42 20h68q30 0 44 -20q42 -74 128 -220q16 -24 -10 -24h-72q-20 0 -26 16q-32 60 -98 180q-24 -44 -96 -180q-8 -16 -30 -16h-68q-28 0 -12 24z" />
<glyph unicode="&#xcb;" d="M244 28v1260q0 28 28 28h644q28 0 28 -28v-74q0 -28 -28 -28h-502q-20 0 -20 -18v-414q0 -18 20 -18h438q28 0 28 -30v-74q0 -28 -28 -28h-438q-20 0 -20 -18v-436q0 -18 20 -18h502q28 0 28 -30v-74q0 -28 -28 -28h-644q-28 0 -28 28zM348 1476v208q0 28 26 28h88 q28 0 28 -26v-210q0 -28 -28 -28h-88q-26 0 -26 28zM698 1476v208q0 28 26 28h90q26 0 26 -26v-210q0 -28 -26 -28h-90q-26 0 -26 28z" />
<glyph unicode="&#xcc;" d="M428 1698q0 2 2 6q4 8 16 8h122q32 0 46 -26q40 -70 118 -210q18 -28 -14 -28h-68q-22 0 -38 20q-60 72 -178 216q-6 8 -6 14zM610 28v1260q0 28 28 28h92q30 0 30 -28v-1260q0 -28 -30 -28h-92q-28 0 -28 28z" />
<glyph unicode="&#xcd;" d="M428 28v1260q0 28 28 28h92q28 0 28 -28v-1260q0 -28 -28 -28h-92q-28 0 -28 28zM454 1476q40 70 118 210q16 26 44 26h124q16 0 20 -8v-4q0 -8 -6 -16l-180 -216q-16 -20 -40 -20h-68q-24 0 -12 28z" />
<glyph unicode="&#xce;" d="M382 1458q0 6 6 14q42 74 128 220q16 20 44 20h70q26 0 40 -20q44 -74 130 -220q4 -8 4 -14q0 -10 -14 -10h-70q-20 0 -28 16q-34 60 -98 180q-24 -44 -96 -180q-8 -16 -30 -16h-68q-18 0 -18 10zM522 28v1260q0 28 28 28h92q28 0 28 -28v-1260q0 -28 -28 -28h-92 q-28 0 -28 28z" />
<glyph unicode="&#xcf;" d="M348 1476v208q0 28 26 28h88q28 0 28 -26v-210q0 -28 -28 -28h-88q-26 0 -26 28zM520 28v1260q0 28 28 28h94q28 0 28 -28v-1260q0 -28 -28 -28h-94q-28 0 -28 28zM698 1476v208q0 28 26 28h90q26 0 26 -26v-210q0 -28 -26 -28h-90q-26 0 -26 28z" />
<glyph unicode="&#xd0;" d="M114 632v62q0 28 28 28h76q20 0 20 20v546q0 28 30 28h504q140 0 222 -80q80 -78 80 -222v-710q0 -144 -80 -224q-82 -80 -222 -80h-504q-30 0 -30 28v558q0 20 -20 20h-76q-28 0 -28 26zM388 150q0 -18 20 -18h344q172 0 172 178v698q0 178 -172 178h-344q-20 0 -20 -18 v-426q0 -20 20 -20h258q30 0 30 -28v-62q0 -26 -30 -26h-258q-20 0 -20 -20v-436z" />
<glyph unicode="&#xd1;" d="M160 28v1260q0 28 30 28h84q24 0 32 -16q188 -330 566 -992h8v980q0 28 28 28h90q30 0 30 -28v-1260q0 -28 -30 -28h-76q-22 0 -42 26l-564 984h-8v-982q0 -28 -28 -28h-90q-30 0 -30 28zM370 1596v80q0 20 18 20h44q18 0 18 -20v-54q0 -60 10 -80t34 -20q28 0 40 16 q14 16 38 72q28 58 52 76q26 18 84 18q114 0 114 -160v-80q0 -22 -20 -22h-44q-18 0 -18 22v56q0 60 -10 78q-10 20 -36 20q-28 0 -38 -12t-22 -38q-42 -92 -68 -110q-26 -20 -84 -20q-112 0 -112 158z" />
<glyph unicode="&#xd2;" d="M168 304v710q0 144 82 222q80 80 222 80h244q142 0 222 -80t80 -222v-710q0 -142 -80 -224q-80 -80 -222 -80h-244q-142 0 -222 80q-82 80 -82 224zM318 310q0 -178 170 -178h210q172 0 172 178v698q0 178 -172 178h-210q-170 0 -170 -178v-698zM348 1684q-22 28 12 28 h122q32 0 46 -26q38 -70 118 -210q16 -28 -12 -28h-70q-22 0 -38 20q-60 72 -178 216z" />
<glyph unicode="&#xd3;" d="M168 304v710q0 144 82 222q80 80 222 80h244q142 0 222 -80t80 -222v-710q0 -142 -80 -224q-80 -80 -222 -80h-244q-142 0 -222 80q-82 80 -82 224zM318 310q0 -178 170 -178h210q172 0 172 178v698q0 178 -172 178h-210q-170 0 -170 -178v-698zM530 1476q40 70 118 210 q12 26 44 26h124q12 0 16 -8t-4 -20q-58 -72 -178 -216q-16 -20 -40 -20h-68q-28 0 -12 28z" />
<glyph unicode="&#xd4;" d="M168 304v710q0 144 82 222q80 80 222 80h244q142 0 222 -80t80 -222v-710q0 -142 -80 -224q-80 -80 -222 -80h-244q-142 0 -222 80q-82 80 -82 224zM318 310q0 -178 170 -178h210q172 0 172 178v698q0 178 -172 178h-210q-170 0 -170 -178v-698zM390 1472q44 74 130 220 q14 20 40 20h72q26 0 40 -20q44 -74 130 -220q14 -24 -10 -24h-70q-22 0 -28 16q-34 60 -100 180q-24 -44 -96 -180q-8 -16 -28 -16h-70q-24 0 -10 24z" />
<glyph unicode="&#xd5;" d="M168 304v710q0 144 82 222q80 80 222 80h244q142 0 222 -80t80 -222v-710q0 -142 -80 -224q-80 -80 -222 -80h-244q-142 0 -222 80q-82 80 -82 224zM318 310q0 -178 170 -178h210q172 0 172 178v698q0 178 -172 178h-210q-170 0 -170 -178v-698zM368 1596v80q0 20 18 20 h44q18 0 18 -20v-54q0 -60 10 -80t34 -20q28 0 40 16q14 16 38 72q26 58 52 76t84 18q112 0 112 -160v-80q0 -22 -16 -22h-44q-20 0 -20 22v56q0 60 -10 78q-10 20 -36 20q-28 0 -38 -12t-22 -38q-10 -24 -12 -26q-26 -64 -54 -84q-26 -20 -84 -20q-114 0 -114 158z" />
<glyph unicode="&#xd6;" d="M168 304v710q0 144 82 222q80 80 222 80h244q142 0 222 -80t80 -222v-710q0 -142 -80 -224q-80 -80 -222 -80h-244q-142 0 -222 80q-82 80 -82 224zM318 310q0 -178 170 -178h210q172 0 172 178v698q0 178 -172 178h-210q-170 0 -170 -178v-698zM348 1476v208q0 28 26 28 h88q26 0 26 -26v-210q0 -28 -26 -28h-88q-26 0 -26 28zM698 1476v208q0 28 26 28h88q26 0 26 -26v-210q0 -28 -26 -28h-88q-26 0 -26 28z" />
<glyph unicode="&#xd7;" d="M264 410q0 12 10 22l226 226l-224 224q-22 24 0 44q18 16 50 48q10 12 20 14q12 0 22 -14q76 -74 226 -222q56 56 224 222q24 26 44 0q16 -16 50 -48q22 -20 0 -44q-76 -74 -226 -224l226 -226q12 -12 12 -22t-12 -20q-16 -18 -50 -50q-10 -10 -20 -10q-12 0 -24 10 q-76 76 -224 226q-56 -58 -226 -226q-20 -20 -42 0l-50 50q-12 10 -12 20z" />
<glyph unicode="&#xd8;" d="M110 54q0 10 8 22q22 32 70 96q-24 62 -24 132v710q0 144 82 222q80 80 222 80h252q146 0 226 -86q14 22 46 66q20 24 44 8q10 -6 30 -20q12 -8 12 -20q0 -10 -8 -22q-24 -34 -70 -100q20 -60 20 -128v-710q0 -144 -80 -224t-220 -80h-252q-144 0 -228 84 q-16 -22 -46 -66q-18 -24 -44 -8q-10 8 -28 22q-12 10 -12 22zM314 350q136 188 542 754q-42 82 -154 82h-216q-172 0 -172 -178v-658zM332 212q38 -80 154 -80h216q172 0 172 178v656q-136 -188 -542 -754z" />
<glyph unicode="&#xd9;" d="M178 304v984q0 28 28 28h94q28 0 28 -28v-978q0 -178 170 -178h192q172 0 172 178v978q0 28 26 28h92q30 0 30 -26v-986q0 -144 -80 -224t-222 -80h-226q-142 0 -222 80q-82 80 -82 224zM352 1704q4 8 16 8h126q28 0 42 -26l120 -210q16 -28 -12 -28h-68q-26 0 -42 20 q-58 72 -178 216q-8 12 -4 20z" />
<glyph unicode="&#xda;" d="M178 304v984q0 28 28 28h94q28 0 28 -28v-978q0 -178 170 -178h192q172 0 172 178v978q0 28 26 28h92q30 0 30 -26v-986q0 -144 -80 -224t-222 -80h-226q-142 0 -222 80q-82 80 -82 224zM536 1476q40 70 118 210q14 26 44 26h124q14 0 18 -8t-4 -20l-180 -216 q-14 -20 -40 -20h-68q-28 0 -12 28z" />
<glyph unicode="&#xdb;" d="M178 304v984q0 28 28 28h94q28 0 28 -28v-978q0 -178 170 -178h192q172 0 172 178v978q0 28 26 28h92q30 0 30 -26v-986q0 -144 -80 -224t-222 -80h-226q-142 0 -222 80q-82 80 -82 224zM390 1472q42 74 130 220q14 20 42 20h68q30 0 44 -20q42 -74 128 -220 q16 -24 -10 -24h-70q-20 0 -28 16q-32 60 -98 180q-24 -44 -96 -180q-8 -16 -28 -16h-68q-30 0 -14 24z" />
<glyph unicode="&#xdc;" d="M178 304v984q0 28 28 28h94q28 0 28 -28v-978q0 -178 170 -178h192q172 0 172 178v978q0 28 26 28h92q30 0 30 -26v-986q0 -144 -80 -224t-222 -80h-226q-142 0 -222 80q-82 80 -82 224zM348 1476v208q0 28 26 28h88q28 0 28 -26v-210q0 -28 -28 -28h-88q-26 0 -26 28z M698 1476v208q0 28 26 28h90q26 0 26 -26v-210q0 -28 -26 -28h-90q-26 0 -26 28z" />
<glyph unicode="&#xdd;" d="M124 1298q0 6 4 10q6 8 18 8h116q22 0 34 -28q98 -206 292 -620h10q74 154 292 620q8 28 32 28h118q24 0 22 -14q0 -6 -4 -16q-130 -264 -392 -792v-466q0 -28 -28 -28h-92q-28 0 -28 28v466q-98 198 -390 792q-4 8 -4 12zM536 1476q40 70 118 210q14 26 44 26h124 q12 0 18 -8q4 -8 -6 -20q-58 -72 -178 -216q-16 -20 -40 -20h-68q-28 0 -12 28z" />
<glyph unicode="&#xde;" d="M250 28v1260q0 28 26 28h94q28 0 28 -28v-226q0 -18 22 -18h216q140 0 222 -80q80 -80 80 -222v-168q0 -144 -80 -224q-82 -80 -222 -80h-216q-22 0 -22 -18v-224q0 -28 -28 -28h-94q-26 0 -26 28zM398 422q0 -18 20 -18h198q172 0 172 176v156q0 178 -172 178h-198 q-20 0 -20 -20v-472z" />
<glyph unicode="&#xdf;" d="M180 28v986q0 144 80 222q80 80 222 80h204q140 0 222 -80q80 -80 80 -224v-114q0 -170 -154 -236q80 -18 128 -86q46 -68 46 -158v-124q0 -140 -80 -218q-82 -76 -222 -76h-172q-30 0 -30 26v74q0 26 30 26h154q174 0 174 180v112q0 86 -56 132q-54 46 -142 46h-94 q-28 0 -28 26v74q0 28 28 28h86q86 0 136 48q48 46 48 132v108q0 176 -174 176h-166q-172 0 -172 -176v-984q0 -28 -28 -28h-92q-28 0 -28 28z" />
<glyph unicode="&#xe0;" d="M206 304v438q0 142 80 222q82 80 222 80h446q28 0 28 -28v-988q0 -28 -28 -28h-92q-30 0 -30 28v80h-8q-50 -108 -208 -108h-108q-140 0 -222 80q-80 80 -80 224zM356 310q0 -178 170 -178h116q92 0 142 48q48 50 48 140v574q0 20 -20 20h-286q-170 0 -170 -178v-426z M410 1432q4 8 18 8h124q28 0 42 -26l120 -210q16 -28 -12 -28h-70q-22 0 -40 20q-58 72 -178 216q-10 12 -4 20z" />
<glyph unicode="&#xe1;" d="M206 304v438q0 142 80 222q82 80 222 80h446q28 0 28 -28v-988q0 -28 -28 -28h-92q-30 0 -30 28v80h-8q-50 -108 -208 -108h-108q-140 0 -222 80q-80 80 -80 224zM356 310q0 -178 170 -178h116q92 0 142 48q48 50 48 140v574q0 20 -20 20h-286q-170 0 -170 -178v-426z M570 1204l120 210q12 26 42 26h124q14 0 18 -8t-4 -20q-60 -72 -178 -216q-22 -20 -44 -20h-66q-28 0 -12 28z" />
<glyph unicode="&#xe2;" d="M206 304v438q0 142 80 222q82 80 222 80h446q28 0 28 -28v-988q0 -28 -28 -28h-92q-30 0 -30 28v80h-8q-50 -108 -208 -108h-108q-140 0 -222 80q-80 80 -80 224zM356 310q0 -178 170 -178h116q92 0 142 48q48 50 48 140v574q0 20 -20 20h-286q-170 0 -170 -178v-426z M420 1200q44 74 130 220q14 20 42 20h70q28 0 42 -20q42 -74 128 -220q14 -24 -10 -24h-70q-20 0 -28 16l-96 180q-24 -44 -98 -180q-6 -16 -30 -16h-66q-28 0 -14 24z" />
<glyph unicode="&#xe3;" d="M206 304v438q0 142 80 222q82 80 222 80h446q28 0 28 -28v-988q0 -28 -28 -28h-92q-30 0 -30 28v80h-8q-50 -108 -208 -108h-108q-140 0 -222 80q-80 80 -80 224zM356 310q0 -178 170 -178h116q92 0 142 48q48 50 48 140v574q0 20 -20 20h-286q-170 0 -170 -178v-426z M414 1338v78q0 22 22 22h42q18 0 18 -22v-54q0 -58 10 -78q12 -20 36 -20q26 0 40 16q12 16 38 72q26 54 50 74q26 18 82 18q116 0 116 -158v-82q0 -22 -20 -22h-42q-18 0 -18 22v56q0 58 -10 80q-12 20 -34 20q-20 0 -28 -2q-6 -2 -16 -14q-8 -12 -12 -22t-26 -56 q-20 -48 -46 -66q-28 -20 -84 -20q-118 0 -118 158z" />
<glyph unicode="&#xe4;" d="M206 304v438q0 142 80 222q82 80 222 80h446q28 0 28 -28v-988q0 -28 -28 -28h-92q-30 0 -30 28v80h-8q-50 -108 -208 -108h-108q-140 0 -222 80q-80 80 -80 224zM356 310q0 -178 170 -178h116q92 0 142 48q48 50 48 140v574q0 20 -20 20h-286q-170 0 -170 -178v-426z M392 1204v208q0 28 24 28h88q28 0 28 -26v-210q0 -28 -28 -28h-88q-24 0 -24 28zM742 1204v208q0 28 24 28h90q26 0 26 -26v-210q0 -28 -26 -28h-90q-24 0 -24 28z" />
<glyph unicode="&#xe5;" d="M206 304v438q0 142 80 222q82 80 222 80h446q28 0 28 -28v-988q0 -28 -28 -28h-92q-30 0 -30 28v80h-8q-50 -108 -208 -108h-108q-140 0 -222 80q-80 80 -80 224zM356 310q0 -178 170 -178h116q92 0 142 48q48 50 48 140v574q0 20 -20 20h-286q-170 0 -170 -178v-426z M452 1260v110q0 118 128 118h68q134 0 134 -118v-110q0 -122 -134 -122h-68q-128 0 -128 122zM518 1276q0 -46 18 -62t64 -16h30q44 0 64 16q18 16 18 62v74q0 44 -18 62q-20 16 -64 16h-30q-46 0 -64 -16q-18 -18 -18 -62v-74z" />
<glyph unicode="&#xe6;" d="M-92 296v42q0 142 80 220q80 76 224 76h298q18 0 18 18v86q0 176 -170 176h-322q-28 0 -28 28v74q0 28 28 28h318q186 0 252 -128q62 128 246 128h126q142 0 222 -80q78 -80 78 -222v-296q0 -30 -28 -30h-552q-22 0 -22 -18v-88q0 -178 172 -178h402q28 0 28 -30v-76 q0 -26 -28 -26h-420q-180 0 -250 132q-64 -132 -270 -132h-98q-140 0 -222 78q-82 80 -82 218zM50 306q0 -182 180 -182h108q192 0 192 188v190q0 18 -22 18h-278q-180 0 -180 -178v-36zM676 544q0 -20 22 -20h428q20 0 20 20v192q0 178 -172 178h-114q-184 0 -184 -172 v-198z" />
<glyph unicode="&#xe7;" d="M280 304v438q0 142 80 222q82 80 222 80h298q28 0 28 -28v-76q0 -26 -28 -26h-280q-170 0 -170 -178v-426q0 -178 170 -178h280q28 0 28 -30v-76q0 -26 -28 -26h-136q-20 -22 -84 -88v-8q158 0 158 -132v-28q0 -130 -176 -130h-62q-26 0 -26 28v28q0 16 6 22q4 4 20 4h48 q60 0 82 14t22 46v4q0 38 -22 50q-22 14 -82 14h-34q-36 0 -48 30q-10 32 14 60q26 28 76 86h-54q-140 0 -222 80q-80 80 -80 224z" />
<glyph unicode="&#xe8;" d="M206 304v438q0 142 80 222q82 80 222 80h172q142 0 222 -80t80 -222v-260q0 -32 -28 -32h-580q-20 0 -20 -18v-124q0 -178 172 -178h418q28 0 28 -30v-74q0 -26 -28 -26h-436q-140 0 -222 80q-80 80 -80 224zM354 580q0 -20 20 -20h442q20 0 20 20v158q0 176 -172 176 h-138q-172 0 -172 -176v-158zM358 1432q4 8 18 8h122q32 0 46 -26q38 -70 116 -210q16 -28 -12 -28h-68q-24 0 -38 20l-180 216q-8 12 -4 20z" />
<glyph unicode="&#xe9;" d="M206 304v438q0 142 80 222q82 80 222 80h172q142 0 222 -80t80 -222v-260q0 -32 -28 -32h-580q-20 0 -20 -18v-124q0 -178 172 -178h418q28 0 28 -30v-74q0 -26 -28 -26h-436q-140 0 -222 80q-80 80 -80 224zM354 580q0 -20 20 -20h442q20 0 20 20v158q0 176 -172 176 h-138q-172 0 -172 -176v-158zM526 1204q38 70 118 210q12 26 44 26h122q14 0 18 -8t-4 -20q-60 -72 -178 -216q-20 -20 -40 -20h-68q-30 0 -12 28z" />
<glyph unicode="&#xea;" d="M206 304v438q0 142 80 222q82 80 222 80h172q142 0 222 -80t80 -222v-260q0 -32 -28 -32h-580q-20 0 -20 -18v-124q0 -178 172 -178h418q28 0 28 -30v-74q0 -26 -28 -26h-436q-140 0 -222 80q-80 80 -80 224zM354 580q0 -20 20 -20h442q20 0 20 20v158q0 176 -172 176 h-138q-172 0 -172 -176v-158zM392 1200q44 74 130 220q14 20 42 20h70q26 0 40 -20q44 -74 132 -220q14 -24 -12 -24h-70q-20 0 -28 16l-96 180q-26 -44 -98 -180q-8 -16 -28 -16h-70q-26 0 -12 24z" />
<glyph unicode="&#xeb;" d="M206 304v438q0 142 80 222q82 80 222 80h172q142 0 222 -80t80 -222v-260q0 -32 -28 -32h-580q-20 0 -20 -18v-124q0 -178 172 -178h418q28 0 28 -30v-74q0 -26 -28 -26h-436q-140 0 -222 80q-80 80 -80 224zM354 580q0 -20 20 -20h442q20 0 20 20v158q0 176 -172 176 h-138q-172 0 -172 -176v-158zM354 1204v208q0 28 26 28h88q26 0 26 -26v-210q0 -28 -26 -28h-88q-26 0 -26 28zM704 1204v208q0 28 26 28h88q26 0 26 -26v-210q0 -28 -26 -28h-88q-26 0 -26 28z" />
<glyph unicode="&#xec;" d="M428 1426v6q4 8 18 8h122q30 0 46 -26q38 -70 118 -210q16 -28 -14 -28h-68q-22 0 -40 20q-58 72 -178 216q-4 6 -4 14zM610 28v988q0 28 28 28h94q28 0 28 -28v-988q0 -28 -28 -28h-92q-30 0 -30 28z" />
<glyph unicode="&#xed;" d="M428 28v988q0 28 28 28h94q28 0 28 -28v-988q0 -28 -28 -28h-92q-30 0 -30 28zM456 1204q38 70 118 210q14 26 44 26h122q14 0 18 -8q2 -4 2 -6q0 -8 -6 -14q-60 -72 -178 -216q-16 -20 -42 -20h-66q-30 0 -12 28z" />
<glyph unicode="&#xee;" d="M382 1186q0 6 4 14q44 74 132 220q14 20 40 20h70q30 0 44 -20q42 -74 128 -220q6 -8 6 -14q0 -10 -16 -10h-72q-20 0 -26 16q-32 60 -98 180q-24 -44 -96 -180q-8 -16 -30 -16h-68q-18 0 -18 10zM520 28v988q0 28 26 28h94q30 0 30 -28v-988q0 -28 -30 -28h-92 q-28 0 -28 28z" />
<glyph unicode="&#xef;" d="M348 1204v208q0 28 26 28h88q28 0 28 -26v-210q0 -28 -28 -28h-88q-26 0 -26 28zM520 28v988q0 28 26 28h96q28 0 28 -28v-988q0 -28 -28 -28h-94q-28 0 -28 28zM698 1204v208q0 28 26 28h90q26 0 26 -26v-210q0 -28 -26 -28h-90q-26 0 -26 28z" />
<glyph unicode="&#xf0;" d="M210 304v232q0 144 80 224q82 80 224 80h106q78 0 136 -30t80 -78h8q-6 76 -58 142l-204 228l-192 -160q-20 -14 -38 4q-12 14 -34 42q-16 18 4 38q62 52 186 158q-36 42 -148 168q-26 28 4 50q14 12 44 34q12 8 22 8q14 0 26 -14q50 -56 150 -164q48 42 196 166 q26 16 40 -2q12 -14 34 -42q16 -24 -2 -42q-66 -54 -196 -162l216 -240q84 -92 84 -256v-384q0 -144 -80 -224t-222 -80h-162q-142 0 -224 80q-80 80 -80 224zM360 310q0 -178 170 -178h126q172 0 172 178v210q0 188 -182 188h-108q-86 0 -132 -46t-46 -132v-220z" />
<glyph unicode="&#xf1;" d="M206 28v988q0 28 28 28h92q30 0 30 -28v-80h8q50 108 208 108h116q138 0 216 -80t78 -222v-714q0 -28 -28 -28h-92q-30 0 -30 28v708q0 178 -172 178h-114q-92 0 -142 -50q-48 -48 -48 -140v-696q0 -28 -30 -28h-92q-28 0 -28 28zM360 1338v78q0 22 18 22h42q20 0 20 -22 v-54q0 -58 10 -78t34 -20q26 0 40 16t38 72q26 54 52 74q24 18 82 18q114 0 114 -158v-82q0 -22 -16 -22h-44q-20 0 -20 22v56q0 58 -10 80q-10 20 -32 20t-28 -2q-8 -2 -18 -14q-8 -12 -12 -22t-24 -56q-20 -48 -46 -66q-28 -20 -86 -20q-114 0 -114 158z" />
<glyph unicode="&#xf2;" d="M202 304v438q0 142 82 222q80 80 222 80h176q142 0 222 -80q82 -80 82 -222v-438q0 -144 -82 -224q-80 -80 -222 -80h-176q-142 0 -222 80q-82 80 -82 224zM344 1432q4 8 18 8h124q30 0 44 -26q40 -70 118 -210q16 -28 -14 -28h-66q-22 0 -42 20q-60 72 -178 216 q-8 12 -4 20zM350 308q0 -176 172 -176h144q172 0 172 176v430q0 176 -172 176h-144q-172 0 -172 -176v-430z" />
<glyph unicode="&#xf3;" d="M202 304v438q0 142 82 222q80 80 222 80h176q142 0 222 -80q82 -80 82 -222v-438q0 -144 -82 -224q-80 -80 -222 -80h-176q-142 0 -222 80q-82 80 -82 224zM350 308q0 -176 172 -176h144q172 0 172 176v430q0 176 -172 176h-144q-172 0 -172 -176v-430zM544 1204l120 210 q14 26 42 26h126q12 0 16 -8t-4 -20q-60 -72 -178 -216q-20 -20 -42 -20h-66q-30 0 -14 28z" />
<glyph unicode="&#xf4;" d="M202 304v438q0 142 82 222q80 80 222 80h176q142 0 222 -80q82 -80 82 -222v-438q0 -144 -82 -224q-80 -80 -222 -80h-176q-142 0 -222 80q-82 80 -82 224zM350 308q0 -176 172 -176h144q172 0 172 176v430q0 176 -172 176h-144q-172 0 -172 -176v-430zM388 1200 q42 74 128 220q14 20 44 20h68q28 0 42 -20q42 -74 128 -220q16 -24 -10 -24h-70q-20 0 -28 16l-96 180q-24 -44 -98 -180q-6 -16 -30 -16h-66q-28 0 -12 24z" />
<glyph unicode="&#xf5;" d="M202 304v438q0 142 82 222q80 80 222 80h176q142 0 222 -80q82 -80 82 -222v-438q0 -144 -82 -224q-80 -80 -222 -80h-176q-142 0 -222 80q-82 80 -82 224zM350 308q0 -176 172 -176h144q172 0 172 176v430q0 176 -172 176h-144q-172 0 -172 -176v-430zM360 1338v78 q0 22 18 22h44q18 0 18 -22v-54q0 -58 10 -78t36 -20t40 16q12 16 38 72q26 54 50 74q24 18 82 18q116 0 116 -158v-82q0 -22 -18 -22h-42q-20 0 -20 22v56q0 58 -12 80q-10 20 -32 20q-20 0 -28 -2q-6 -2 -16 -14t-14 -22t-24 -56q-18 -48 -46 -66q-28 -20 -84 -20 q-116 0 -116 158z" />
<glyph unicode="&#xf6;" d="M202 304v438q0 142 82 222q80 80 222 80h176q142 0 222 -80q82 -80 82 -222v-438q0 -144 -82 -224q-80 -80 -222 -80h-176q-142 0 -222 80q-82 80 -82 224zM348 1204v208q0 28 26 28h88q28 0 28 -26v-210q0 -28 -28 -28h-88q-26 0 -26 28zM350 308q0 -176 172 -176h144 q172 0 172 176v430q0 176 -172 176h-144q-172 0 -172 -176v-430zM698 1204v208q0 28 26 28h90q26 0 26 -26v-210q0 -28 -26 -28h-90q-26 0 -26 28z" />
<glyph unicode="&#xf7;" d="M236 630v54q0 26 30 26h658q28 0 28 -26v-54q0 -28 -28 -28h-658q-30 0 -30 28zM538 310v116q0 28 30 28h54q30 0 30 -28v-116q0 -30 -30 -30h-54q-30 0 -30 30zM538 886v120q0 28 30 28h54q30 0 30 -28v-120q0 -28 -30 -28h-54q-30 0 -30 28z" />
<glyph unicode="&#xf8;" d="M108 90q0 10 10 20l96 96q-12 44 -12 98v438q0 140 80 222q82 80 222 80h180q172 0 250 -116q24 22 70 70q22 22 42 2q8 -8 24 -26q10 -10 10 -20t-10 -20l-96 -96q12 -44 12 -96v-438q0 -142 -80 -224q-82 -80 -222 -80h-180q-172 0 -252 114l-68 -68q-24 -22 -42 0 l-24 24q-10 10 -10 20zM352 344q116 118 470 472q-30 98 -158 98h-140q-172 0 -172 -178v-392zM364 226q34 -94 160 -94h140q170 0 170 178v388q-118 -118 -470 -472z" />
<glyph unicode="&#xf9;" d="M206 304v712q0 28 28 28h92q30 0 30 -28v-706q0 -178 170 -178h116q92 0 142 48q48 50 48 140v696q0 28 30 28h92q28 0 28 -28v-988q0 -28 -28 -28h-92q-30 0 -30 28v80h-8q-50 -108 -208 -108h-116q-138 0 -216 80t-78 224zM346 1432q4 8 18 8h122q32 0 44 -26 q40 -70 118 -210q16 -28 -12 -28h-68q-24 0 -40 20q-60 72 -178 216q-10 12 -4 20z" />
<glyph unicode="&#xfa;" d="M206 304v712q0 28 28 28h92q30 0 30 -28v-706q0 -178 170 -178h116q92 0 142 48q48 50 48 140v696q0 28 30 28h92q28 0 28 -28v-988q0 -28 -28 -28h-92q-30 0 -30 28v80h-8q-50 -108 -208 -108h-116q-138 0 -216 80t-78 224zM540 1204q40 70 118 210q12 26 44 26h124 q12 0 16 -8t-4 -20q-58 -72 -178 -216q-20 -20 -40 -20h-68q-28 0 -12 28z" />
<glyph unicode="&#xfb;" d="M206 304v712q0 28 28 28h92q30 0 30 -28v-706q0 -178 170 -178h116q92 0 142 48q48 50 48 140v696q0 28 30 28h92q28 0 28 -28v-988q0 -28 -28 -28h-92q-30 0 -30 28v80h-8q-50 -108 -208 -108h-116q-138 0 -216 80t-78 224zM388 1200q44 74 130 220q14 20 42 20h68 q28 0 42 -20q44 -74 130 -220q14 -24 -10 -24h-70q-22 0 -28 16q-34 60 -100 180q-24 -44 -96 -180q-8 -16 -28 -16h-70q-24 0 -10 24z" />
<glyph unicode="&#xfc;" d="M206 304v712q0 28 28 28h92q30 0 30 -28v-706q0 -178 170 -178h116q92 0 142 48q48 50 48 140v696q0 28 30 28h92q28 0 28 -28v-988q0 -28 -28 -28h-92q-30 0 -30 28v80h-8q-50 -108 -208 -108h-116q-138 0 -216 80t-78 224zM350 1204v208q0 28 24 28h88q26 0 26 -26 v-210q0 -28 -26 -28h-88q-24 0 -24 28zM700 1204v208q0 28 24 28h88q26 0 26 -26v-210q0 -28 -26 -28h-88q-24 0 -24 28z" />
<glyph unicode="&#xfd;" d="M170 1028q2 16 24 16h98q26 0 34 -28q88 -282 264 -844h8q66 210 264 844q8 28 34 28h94q26 0 26 -18q0 -6 -2 -12q-102 -324 -304 -974q-52 -174 -130 -268q-80 -94 -236 -94h-90q-28 0 -28 30v74q0 30 28 30h52q132 0 184 74q44 58 78 170h-60q-24 0 -34 28 q-100 310 -302 932q-2 6 -2 12zM544 1204q40 70 118 210q14 26 46 26h122q14 0 18 -8t-4 -20l-180 -216q-16 -20 -40 -20h-66q-26 0 -14 28z" />
<glyph unicode="&#xfe;" d="M202 -244v1656q0 28 28 28h92q30 0 30 -28v-476h8q50 108 208 108h116q140 0 222 -80q80 -82 80 -222v-438q0 -142 -80 -224q-82 -80 -222 -80h-116q-158 0 -208 108h-8v-352q0 -28 -30 -28h-92q-28 0 -28 28zM352 320q0 -90 48 -140q50 -48 142 -48h122q172 0 172 178 v426q0 178 -172 178h-122q-92 0 -142 -50q-48 -48 -48 -140v-404z" />
<glyph unicode="&#xff;" d="M170 1028q2 16 24 16h98q26 0 34 -28q88 -282 264 -844h8q66 210 264 844q8 28 34 28h94q26 0 26 -18q0 -6 -2 -12q-102 -324 -304 -974q-52 -174 -130 -268q-80 -94 -236 -94h-90q-28 0 -28 30v74q0 30 28 30h52q132 0 184 74q44 58 78 170h-60q-24 0 -34 28 q-100 310 -302 932q-2 6 -2 12zM348 1204v208q0 28 28 28h88q26 0 26 -26v-210q0 -28 -26 -28h-88q-28 0 -28 28zM700 1204v208q0 28 26 28h88q26 0 26 -26v-210q0 -28 -26 -28h-88q-26 0 -26 28z" />
<glyph unicode="&#x152;" d="M-56 304v710q0 142 80 222q82 80 220 80h970q30 0 30 -28v-74q0 -28 -30 -28h-494q-20 0 -20 -18v-414q0 -18 20 -18h430q28 0 28 -30v-74q0 -28 -28 -28h-430q-20 0 -20 -18v-436q0 -18 20 -18h494q30 0 30 -30v-74q0 -28 -30 -28h-970q-138 0 -220 80q-80 80 -80 224z M94 310q0 -178 170 -178h266q22 0 22 18v1018q0 18 -22 18h-266q-170 0 -170 -178v-698z" />
<glyph unicode="&#x153;" d="M-112 304v438q0 142 82 222q80 80 222 80h154q180 0 258 -130q68 130 248 130h144q142 0 222 -80q82 -82 82 -222v-260q0 -32 -32 -32h-576q-22 0 -22 -18v-122q0 -178 172 -178h416q30 0 30 -30v-76q0 -26 -30 -26h-412q-182 0 -258 136q-56 -136 -234 -136h-162 q-142 0 -222 80q-82 80 -82 224zM38 310q0 -178 170 -178h142q172 0 172 178v426q0 178 -172 178h-142q-170 0 -170 -178v-426zM670 580q0 -20 22 -20h438q20 0 20 20v156q0 178 -172 178h-136q-172 0 -172 -178v-156z" />
<glyph unicode="&#x178;" d="M124 1298q0 6 4 10q6 8 18 8h116q22 0 34 -28q98 -206 292 -620h10q74 154 292 620q8 28 32 28h118q24 0 22 -14q0 -6 -4 -16q-130 -264 -392 -792v-466q0 -28 -28 -28h-92q-28 0 -28 28v466q-98 198 -390 792q-4 8 -4 12zM348 1476v208q0 28 26 28h88q24 0 24 -26v-210 q0 -28 -24 -28h-88q-26 0 -26 28zM698 1476v208q0 28 26 28h88q24 0 24 -26v-210q0 -28 -24 -28h-88q-26 0 -26 28z" />
<glyph unicode="&#x2c6;" d="M382 1186q0 6 6 14q44 74 130 220q14 20 40 20h70q28 0 42 -20q44 -74 130 -220q4 -8 6 -14q0 -10 -16 -10h-72q-20 0 -28 16q-32 60 -98 180q-24 -44 -96 -180q-8 -16 -28 -16h-70q-16 0 -16 10z" />
<glyph unicode="&#x2dc;" d="M368 1338v78q0 22 18 22h44q18 0 18 -22v-54q0 -58 10 -78t36 -20t40 16q12 16 38 72q26 54 50 74q26 18 84 18q114 0 114 -158v-82q0 -22 -18 -22h-44q-18 0 -18 22v56q0 58 -10 80q-12 20 -34 20q-20 0 -28 -2q-6 -2 -16 -14q-8 -12 -14 -22q-4 -10 -24 -56 q-20 -48 -46 -66q-28 -20 -86 -20q-114 0 -114 158z" />
<glyph unicode="&#x2000;" horiz-adv-x="893" />
<glyph unicode="&#x2001;" horiz-adv-x="1786" />
<glyph unicode="&#x2002;" horiz-adv-x="893" />
<glyph unicode="&#x2003;" horiz-adv-x="1786" />
<glyph unicode="&#x2004;" horiz-adv-x="595" />
<glyph unicode="&#x2005;" horiz-adv-x="446" />
<glyph unicode="&#x2006;" horiz-adv-x="297" />
<glyph unicode="&#x2007;" horiz-adv-x="297" />
<glyph unicode="&#x2008;" horiz-adv-x="223" />
<glyph unicode="&#x2009;" horiz-adv-x="357" />
<glyph unicode="&#x200a;" horiz-adv-x="99" />
<glyph unicode="&#x2010;" d="M356 620v68q0 28 30 28h416q30 0 30 -28v-68q0 -28 -30 -28h-416q-30 0 -30 28z" />
<glyph unicode="&#x2011;" d="M356 620v68q0 28 30 28h416q30 0 30 -28v-68q0 -28 -30 -28h-416q-30 0 -30 28z" />
<glyph unicode="&#x2012;" d="M356 620v68q0 28 30 28h416q30 0 30 -28v-68q0 -28 -30 -28h-416q-30 0 -30 28z" />
<glyph unicode="&#x2013;" d="M262 634v54q0 28 28 28h608q28 0 28 -28v-54q0 -28 -28 -28h-608q-28 0 -28 28z" />
<glyph unicode="&#x2014;" d="M98 634v54q0 28 28 28h936q28 0 28 -28v-54q0 -28 -28 -28h-936q-28 0 -28 28z" />
<glyph unicode="&#x2018;" d="M522 856v116q0 44 30 136q24 64 68 192q10 16 26 16q20 0 20 -24v-436q0 -26 -28 -26h-88q-28 0 -28 26z" />
<glyph unicode="&#x2019;" d="M522 854v434q0 28 28 28h88q28 0 28 -26v-118q0 -48 -30 -134q-22 -64 -68 -194q-6 -14 -24 -14q-22 0 -22 24z" />
<glyph unicode="&#x201a;" d="M522 -194v436q0 26 26 26h88q30 0 30 -26v-118q0 -42 -32 -134l-66 -192q-10 -18 -26 -18q-20 0 -20 26z" />
<glyph unicode="&#x201c;" d="M364 856v116q0 44 32 136l66 192q12 16 26 16q20 0 20 -24v-436q0 -26 -26 -26h-88q-30 0 -30 26zM680 856v116q0 54 30 136q24 64 68 192q6 16 22 16q24 0 24 -24v-436q0 -26 -28 -26h-90q-26 0 -26 26z" />
<glyph unicode="&#x201d;" d="M364 854v434q0 28 30 28h88q26 0 26 -26v-118q0 -48 -28 -134q-24 -64 -70 -194q-6 -14 -22 -14q-24 0 -24 24zM680 854v434q0 28 26 28h90q28 0 28 -26v-118q0 -52 -32 -134q-22 -64 -68 -194q-6 -14 -24 -14q-20 0 -20 24z" />
<glyph unicode="&#x201e;" d="M366 -194v434q0 28 26 28h88q28 0 28 -26v-120q0 -40 -30 -132q-22 -66 -68 -194q-8 -16 -26 -16t-18 26zM678 -194v434q0 28 30 28h88q26 0 26 -26v-120q0 -46 -28 -132q-24 -66 -70 -194q-6 -16 -22 -16q-24 0 -24 26z" />
<glyph unicode="&#x2022;" d="M476 546v216q0 74 74 74h88q74 0 74 -74v-216q0 -72 -74 -72h-88q-74 0 -74 72z" />
<glyph unicode="&#x2026;" d="M104 30v246q0 28 28 28h104q26 0 26 -28v-248q0 -28 -26 -28h-104q-28 0 -28 30zM518 30v246q0 28 26 28h106q26 0 26 -28v-248q0 -28 -26 -28h-106q-26 0 -26 30zM926 30v246q0 28 26 28h104q28 0 28 -28v-248q0 -28 -28 -28h-104q-26 0 -26 30z" />
<glyph unicode="&#x202f;" horiz-adv-x="357" />
<glyph unicode="&#x2039;" d="M420 498v52q0 30 30 54q96 88 286 262q10 8 18 8q2 2 4 0q8 -6 8 -22v-76q0 -22 -22 -40q-74 -72 -224 -212q56 -52 224 -210q22 -22 22 -44v-74q0 -18 -8 -22q-2 -2 -4 -2q-8 0 -18 8q-96 88 -286 262q-30 22 -30 56z" />
<glyph unicode="&#x203a;" d="M420 196v74q0 22 24 44q76 70 226 210q-56 54 -226 212q-24 18 -24 40v76q0 16 10 22q2 2 4 0q8 0 18 -8q96 -88 286 -262q28 -24 28 -54v-52q0 -34 -28 -56q-96 -88 -286 -262q-10 -8 -18 -8q-2 0 -4 2q-10 4 -10 22z" />
<glyph unicode="&#x205f;" horiz-adv-x="446" />
<glyph unicode="&#x20ac;" d="M152 504v46q0 32 32 32h112v146h-112q-32 0 -32 30v46q0 32 32 32h112v182q0 142 80 220q82 78 224 78h132q142 0 222 -78q82 -78 82 -220v-52q0 -28 -30 -28h-92q-28 0 -28 28v50q0 174 -172 174h-96q-174 0 -174 -174v-180h284q30 0 30 -32v-46q0 -30 -30 -30h-284 v-146h284q30 0 30 -32v-46q0 -30 -30 -30h-284v-172q0 -176 174 -176h96q172 0 172 176v48q0 28 28 28h92q30 0 30 -28v-50q0 -142 -82 -222q-80 -78 -222 -78h-132q-142 0 -224 78q-80 80 -80 222v174h-112q-32 0 -32 30z" />
<glyph unicode="&#x2122;" d="M110 1262v36q0 18 18 18h346q20 0 20 -18v-36q0 -18 -20 -18h-130v-408q0 -20 -18 -20h-44q-18 0 -18 20v408h-136q-18 0 -18 18zM586 836v462q0 18 22 18h70q14 0 22 -12q44 -90 130 -272h6q34 68 132 272q4 12 18 12h72q20 0 20 -18v-462q0 -20 -18 -20h-46 q-18 0 -18 20v360h-6l-112 -240q-6 -18 -20 -18h-48q-14 0 -22 18l-114 240h-6v-360q0 -20 -18 -20h-44q-20 0 -20 20z" />
<glyph unicode="&#x25fc;" horiz-adv-x="1040" d="M0 0v1040h1040v-1040h-1040z" />
</font>
</defs>
</svg>
